<svg width="96" height="96" viewBox="0 0 96 96" fill="none" xmlns="http://www.w3.org/2000/svg">
<g filter="url(#filter0_d_110_18)">
<circle cx="49.6876" cy="47.324" r="36.0577" transform="rotate(18.5785 49.6876 47.324)" fill="url(#paint0_linear_110_18)"/>
<circle cx="46.5441" cy="48.6279" r="36.0577" transform="rotate(18.5785 46.5441 48.6279)" fill="url(#paint1_linear_110_18)"/>
<g filter="url(#filter1_d_110_18)">
<path d="M43.7458 76.5434L29.899 48.4876L46.1197 61.7921M43.7458 76.5434L65.4987 54.2165L46.1197 61.7921M43.7458 76.5434L46.1197 61.7921M66.1001 50.4795L46.6578 58.4485L30.5004 44.7506L53.178 17.9317M66.1001 50.4795L53.178 17.9317M66.1001 50.4795L49.6963 39.5669L53.178 17.9317" stroke="white"/>
<path d="M46.657 58.4484L49.6955 39.5668L30.4997 44.7505" stroke="white"/>
</g>
</g>
<defs>
<filter id="filter0_d_110_18" x="6.47656" y="11.2565" width="83.2788" height="81.4389" filterUnits="userSpaceOnUse" color-interpolation-filters="sRGB">
<feFlood flood-opacity="0" result="BackgroundImageFix"/>
<feColorMatrix in="SourceAlpha" type="matrix" values="0 0 0 0 0 0 0 0 0 0 0 0 0 0 0 0 0 0 127 0" result="hardAlpha"/>
<feOffset dy="4"/>
<feGaussianBlur stdDeviation="2"/>
<feComposite in2="hardAlpha" operator="out"/>
<feColorMatrix type="matrix" values="0 0 0 0 0 0 0 0 0 0 0 0 0 0 0 0 0 0 0.25 0"/>
<feBlend mode="normal" in2="BackgroundImageFix" result="effect1_dropShadow_110_18"/>
<feBlend mode="normal" in="SourceGraphic" in2="effect1_dropShadow_110_18" result="shape"/>
</filter>
<filter id="filter1_d_110_18" x="25.4507" y="16.9718" width="45.2964" height="68.427" filterUnits="userSpaceOnUse" color-interpolation-filters="sRGB">
<feFlood flood-opacity="0" result="BackgroundImageFix"/>
<feColorMatrix in="SourceAlpha" type="matrix" values="0 0 0 0 0 0 0 0 0 0 0 0 0 0 0 0 0 0 127 0" result="hardAlpha"/>
<feOffset dy="4"/>
<feGaussianBlur stdDeviation="2"/>
<feComposite in2="hardAlpha" operator="out"/>
<feColorMatrix type="matrix" values="0 0 0 0 0 0 0 0 0 0 0 0 0 0 0 0 0 0 0.25 0"/>
<feBlend mode="normal" in2="BackgroundImageFix" result="effect1_dropShadow_110_18"/>
<feBlend mode="normal" in="SourceGraphic" in2="effect1_dropShadow_110_18" result="shape"/>
</filter>
<linearGradient id="paint0_linear_110_18" x1="49.6876" y1="11.2663" x2="49.6876" y2="83.3817" gradientUnits="userSpaceOnUse">
<stop stop-color="#E0B64B"/>
<stop offset="1" stop-color="#B15353"/>
</linearGradient>
<linearGradient id="paint1_linear_110_18" x1="46.5441" y1="12.5702" x2="46.5441" y2="84.6856" gradientUnits="userSpaceOnUse">
<stop stop-color="#FFCF54"/>
<stop offset="1" stop-color="#FF7676"/>
</linearGradient>
</defs>
</svg>
