<svg width="32" height="32" viewBox="0 0 32 32" fill="none" xmlns="http://www.w3.org/2000/svg">
<g filter="url(#filter0_d_113_669)">
<circle cx="15" cy="15" r="10.5" fill="url(#paint0_linear_113_669)" stroke="#E0E0E0"/>
<g clip-path="url(#clip0_113_669)">
<path d="M16.3809 17.8848C15.9492 18.041 15.4844 18.125 15 18.125C14.5156 18.125 14.0488 18.0391 13.6191 17.8848C13.6133 17.8828 13.6094 17.8809 13.6035 17.8789C13.0176 17.6641 12.4941 17.3184 12.0684 16.875C11.3672 16.1445 10.9375 15.1543 10.9375 14.0625C10.9375 11.8184 12.7559 10 15 10C17.2441 10 19.0625 11.8184 19.0625 14.0625C19.0625 15.1543 18.6328 16.1445 17.9316 16.875C17.9121 16.8945 17.8926 16.916 17.873 16.9355C17.4551 17.3535 16.9473 17.6797 16.3828 17.8848H16.3809ZM15 11.6406C14.7852 11.6406 14.6094 11.8164 14.6094 12.0312V12.3047C14.4609 12.3379 14.3125 12.3906 14.1758 12.4707C13.9043 12.6328 13.6699 12.916 13.6719 13.3281C13.6738 13.7246 13.9062 13.9746 14.1543 14.123C14.3691 14.252 14.6367 14.334 14.8496 14.3965L14.8828 14.4062C15.1289 14.4805 15.3086 14.5391 15.4297 14.6152C15.5293 14.6777 15.543 14.7207 15.5449 14.7754C15.5469 14.873 15.5098 14.9316 15.4297 14.9805C15.332 15.041 15.1777 15.0781 15.0117 15.0723C14.7949 15.0645 14.5918 14.9961 14.3262 14.9062C14.2812 14.8906 14.2344 14.875 14.1855 14.8594C13.9805 14.791 13.7598 14.9023 13.6914 15.1055C13.623 15.3086 13.7344 15.5312 13.9375 15.5996C13.9746 15.6113 14.0156 15.625 14.0566 15.6406C14.2188 15.6973 14.4062 15.7617 14.6074 15.8047V16.0938C14.6074 16.3086 14.7832 16.4844 14.998 16.4844C15.2129 16.4844 15.3887 16.3086 15.3887 16.0938V15.8242C15.5449 15.791 15.7012 15.7363 15.8418 15.6484C16.1211 15.4746 16.332 15.1777 16.3262 14.7695C16.3203 14.373 16.0977 14.1172 15.8457 13.957C15.6211 13.8164 15.3398 13.7305 15.1211 13.6641L15.1074 13.6602C14.8574 13.584 14.6797 13.5293 14.5547 13.4551C14.4531 13.3945 14.4512 13.3594 14.4512 13.3242C14.4512 13.252 14.4785 13.1973 14.5723 13.1426C14.6777 13.0801 14.8379 13.043 14.9922 13.0449C15.1797 13.0469 15.3867 13.0879 15.6016 13.1465C15.8105 13.2012 16.0234 13.0781 16.0801 12.8691C16.1367 12.6602 16.0117 12.4473 15.8027 12.3906C15.6758 12.3574 15.5352 12.3242 15.3906 12.2988V12.0312C15.3906 11.8164 15.2148 11.6406 15 11.6406ZM10.9375 16.875H11.25C11.6309 17.3809 12.1094 17.8066 12.6602 18.125H11.25V18.75H15H18.75V18.125H17.3398C17.8906 17.8066 18.3711 17.3809 18.75 16.875H19.0625C19.5801 16.875 20 17.2949 20 17.8125V19.0625C20 19.5801 19.5801 20 19.0625 20H10.9375C10.4199 20 10 19.5801 10 19.0625V17.8125C10 17.2949 10.4199 16.875 10.9375 16.875Z" fill="white"/>
</g>
</g>
<defs>
<filter id="filter0_d_113_669" x="0" y="0" width="32" height="32" filterUnits="userSpaceOnUse" color-interpolation-filters="sRGB">
<feFlood flood-opacity="0" result="BackgroundImageFix"/>
<feColorMatrix in="SourceAlpha" type="matrix" values="0 0 0 0 0 0 0 0 0 0 0 0 0 0 0 0 0 0 127 0" result="hardAlpha"/>
<feOffset dx="1" dy="1"/>
<feGaussianBlur stdDeviation="2.5"/>
<feComposite in2="hardAlpha" operator="out"/>
<feColorMatrix type="matrix" values="0 0 0 0 0 0 0 0 0 0 0 0 0 0 0 0 0 0 0.25 0"/>
<feBlend mode="normal" in2="BackgroundImageFix" result="effect1_dropShadow_113_669"/>
<feBlend mode="normal" in="SourceGraphic" in2="effect1_dropShadow_113_669" result="shape"/>
</filter>
<linearGradient id="paint0_linear_113_669" x1="15" y1="4" x2="15" y2="26" gradientUnits="userSpaceOnUse">
<stop stop-color="#CDFFBB"/>
<stop offset="1" stop-color="#00C2FF"/>
</linearGradient>
<clipPath id="clip0_113_669">
<rect width="10" height="10" fill="white" transform="translate(10 10)"/>
</clipPath>
</defs>
</svg>
