<svg width="623" height="273" viewBox="0 0 623 273" fill="none" xmlns="http://www.w3.org/2000/svg">
<g filter="url(#filter0_d_249_330)">
<path d="M518.017 114V14C553.744 14 586.756 33.0599 604.62 64L518.017 114Z" fill="url(#paint0_linear_249_330)" stroke="white"/>
<path d="M518.017 114L604.62 64C622.483 94.9401 622.483 133.06 604.62 164L518.017 114Z" fill="url(#paint1_linear_249_330)" stroke="white"/>
<path d="M518.017 114L604.619 164C577.005 211.829 515.846 228.217 468.017 200.603C420.187 172.988 403.8 111.829 431.414 64C449.277 33.0599 482.29 14 518.017 14V114Z" fill="url(#paint2_linear_249_330)" stroke="white"/>
</g>
<path d="M447.991 125H446.79C446.7 124.553 446.538 124.139 446.304 123.76C446.074 123.376 445.784 123.042 445.435 122.756C445.085 122.471 444.689 122.249 444.246 122.092C443.803 121.934 443.323 121.855 442.808 121.855C441.981 121.855 441.227 122.07 440.545 122.501C439.867 122.931 439.324 123.564 438.915 124.399C438.51 125.23 438.308 126.249 438.308 127.455C438.308 128.669 438.51 129.692 438.915 130.523C439.324 131.354 439.867 131.984 440.545 132.415C441.227 132.841 441.981 133.054 442.808 133.054C443.323 133.054 443.803 132.975 444.246 132.817C444.689 132.66 445.085 132.44 445.435 132.159C445.784 131.874 446.074 131.539 446.304 131.156C446.538 130.772 446.7 130.357 446.79 129.909H447.991C447.885 130.51 447.685 131.07 447.391 131.59C447.101 132.106 446.73 132.558 446.278 132.945C445.831 133.333 445.315 133.636 444.732 133.853C444.148 134.07 443.506 134.179 442.808 134.179C441.708 134.179 440.732 133.904 439.88 133.354C439.028 132.8 438.359 132.021 437.873 131.015C437.391 130.009 437.151 128.822 437.151 127.455C437.151 126.087 437.391 124.9 437.873 123.894C438.359 122.888 439.028 122.111 439.88 121.561C440.732 121.007 441.708 120.73 442.808 120.73C443.506 120.73 444.148 120.839 444.732 121.056C445.315 121.269 445.831 121.572 446.278 121.964C446.73 122.352 447.101 122.803 447.391 123.319C447.685 123.835 447.885 124.395 447.991 125ZM451.7 127.864V134H450.563V120.909H451.7V125.722H451.803C452.033 125.215 452.389 124.81 452.87 124.508C453.356 124.205 453.97 124.054 454.711 124.054C455.376 124.054 455.96 124.19 456.463 124.463C456.965 124.736 457.357 125.138 457.639 125.671C457.92 126.204 458.061 126.86 458.061 127.64V134H456.916V127.71C456.916 126.901 456.691 126.263 456.239 125.799C455.791 125.33 455.186 125.096 454.423 125.096C453.899 125.096 453.433 125.207 453.024 125.428C452.615 125.65 452.291 125.969 452.052 126.387C451.818 126.8 451.7 127.293 451.7 127.864ZM463.799 134.224C463.207 134.224 462.665 134.109 462.175 133.879C461.685 133.644 461.295 133.308 461.006 132.869C460.716 132.425 460.571 131.888 460.571 131.258C460.571 130.772 460.663 130.363 460.846 130.031C461.029 129.698 461.289 129.425 461.626 129.212C461.962 128.999 462.361 128.831 462.821 128.707C463.281 128.584 463.788 128.488 464.342 128.42C464.892 128.352 465.357 128.292 465.736 128.241C466.119 128.19 466.411 128.109 466.612 127.998C466.812 127.887 466.912 127.708 466.912 127.461V127.231C466.912 126.562 466.712 126.036 466.311 125.652C465.915 125.264 465.344 125.07 464.598 125.07C463.891 125.07 463.313 125.226 462.866 125.537C462.423 125.848 462.112 126.214 461.933 126.636L460.852 126.246C461.074 125.71 461.381 125.281 461.773 124.962C462.165 124.638 462.604 124.406 463.089 124.265C463.575 124.12 464.067 124.048 464.566 124.048C464.941 124.048 465.331 124.097 465.736 124.195C466.145 124.293 466.524 124.463 466.874 124.706C467.223 124.945 467.506 125.279 467.724 125.71C467.941 126.136 468.05 126.677 468.05 127.333V134H466.912V132.447H466.842C466.705 132.737 466.503 133.018 466.234 133.29C465.966 133.563 465.629 133.787 465.224 133.962C464.82 134.136 464.344 134.224 463.799 134.224ZM463.952 133.182C464.558 133.182 465.082 133.048 465.525 132.779C465.968 132.511 466.309 132.155 466.548 131.712C466.79 131.264 466.912 130.772 466.912 130.235V128.816C466.827 128.897 466.684 128.969 466.484 129.033C466.288 129.097 466.06 129.155 465.8 129.206C465.544 129.253 465.288 129.293 465.033 129.327C464.777 129.362 464.547 129.391 464.342 129.417C463.788 129.485 463.315 129.592 462.923 129.737C462.531 129.881 462.231 130.082 462.022 130.337C461.813 130.589 461.709 130.913 461.709 131.309C461.709 131.906 461.922 132.368 462.348 132.696C462.774 133.02 463.309 133.182 463.952 133.182ZM471.076 134V124.182H472.182V125.69H472.265C472.461 125.196 472.802 124.798 473.288 124.495C473.778 124.188 474.332 124.035 474.95 124.035C475.044 124.035 475.148 124.037 475.263 124.041C475.378 124.045 475.474 124.05 475.551 124.054V125.211C475.5 125.202 475.41 125.19 475.282 125.173C475.154 125.156 475.016 125.147 474.867 125.147C474.355 125.147 473.9 125.256 473.499 125.473C473.103 125.686 472.789 125.982 472.559 126.362C472.329 126.741 472.214 127.173 472.214 127.659V134H471.076ZM477.505 134V124.182H478.649V134H477.505ZM478.087 122.494C477.852 122.494 477.652 122.415 477.486 122.258C477.32 122.096 477.237 121.902 477.237 121.676C477.237 121.45 477.32 121.259 477.486 121.101C477.652 120.939 477.852 120.858 478.087 120.858C478.321 120.858 478.521 120.939 478.688 121.101C478.854 121.259 478.937 121.45 478.937 121.676C478.937 121.902 478.854 122.096 478.688 122.258C478.521 122.415 478.321 122.494 478.087 122.494ZM485.526 124.182V125.173H480.84V124.182H485.526ZM482.304 121.83H483.448V131.437C483.448 131.846 483.518 132.168 483.659 132.402C483.8 132.632 483.983 132.796 484.209 132.894C484.435 132.988 484.675 133.035 484.931 133.035C485.08 133.035 485.208 133.026 485.315 133.009C485.421 132.988 485.515 132.967 485.596 132.945L485.839 133.974C485.728 134.017 485.592 134.055 485.43 134.089C485.268 134.128 485.067 134.147 484.829 134.147C484.411 134.147 484.009 134.055 483.621 133.872C483.237 133.689 482.922 133.416 482.675 133.054C482.428 132.692 482.304 132.242 482.304 131.705V121.83ZM488.122 134V124.182H489.267V134H488.122ZM488.704 122.494C488.47 122.494 488.269 122.415 488.103 122.258C487.937 122.096 487.854 121.902 487.854 121.676C487.854 121.45 487.937 121.259 488.103 121.101C488.269 120.939 488.47 120.858 488.704 120.858C488.938 120.858 489.139 120.939 489.305 121.101C489.471 121.259 489.554 121.45 489.554 121.676C489.554 121.902 489.471 122.096 489.305 122.258C489.139 122.415 488.938 122.494 488.704 122.494ZM496.245 134.205C495.329 134.205 494.536 133.991 493.867 133.565C493.198 133.135 492.68 132.54 492.314 131.782C491.952 131.019 491.771 130.141 491.771 129.148C491.771 128.16 491.952 127.282 492.314 126.515C492.68 125.744 493.185 125.141 493.829 124.706C494.477 124.267 495.224 124.048 496.072 124.048C496.605 124.048 497.119 124.146 497.613 124.342C498.107 124.533 498.55 124.83 498.942 125.23C499.339 125.626 499.652 126.127 499.882 126.732C500.112 127.333 500.227 128.045 500.227 128.867V129.43H492.557V128.426H499.064C499.064 127.795 498.936 127.229 498.68 126.726C498.429 126.219 498.077 125.818 497.626 125.524C497.178 125.23 496.661 125.083 496.072 125.083C495.45 125.083 494.903 125.249 494.43 125.582C493.957 125.914 493.586 126.353 493.317 126.898C493.053 127.444 492.919 128.04 492.915 128.688V129.289C492.915 130.069 493.049 130.751 493.317 131.335C493.59 131.914 493.976 132.364 494.474 132.683C494.973 133.003 495.563 133.163 496.245 133.163C496.71 133.163 497.116 133.09 497.466 132.945C497.82 132.8 498.116 132.607 498.354 132.364C498.597 132.116 498.781 131.846 498.904 131.552L499.984 131.903C499.835 132.317 499.59 132.698 499.249 133.048C498.913 133.397 498.491 133.678 497.984 133.891C497.481 134.1 496.901 134.205 496.245 134.205ZM509.331 126.336L508.289 126.63C508.187 126.336 508.042 126.07 507.855 125.831C507.667 125.592 507.422 125.403 507.119 125.262C506.821 125.121 506.45 125.051 506.007 125.051C505.343 125.051 504.797 125.209 504.371 125.524C503.945 125.839 503.732 126.246 503.732 126.745C503.732 127.167 503.877 127.51 504.166 127.774C504.46 128.034 504.912 128.241 505.521 128.394L507.004 128.759C507.827 128.959 508.443 129.276 508.852 129.711C509.265 130.146 509.472 130.691 509.472 131.347C509.472 131.901 509.318 132.393 509.012 132.824C508.705 133.254 508.276 133.593 507.727 133.84C507.181 134.083 506.548 134.205 505.828 134.205C504.869 134.205 504.079 133.989 503.457 133.559C502.835 133.124 502.436 132.498 502.262 131.68L503.355 131.411C503.495 131.995 503.77 132.436 504.179 132.734C504.593 133.033 505.136 133.182 505.809 133.182C506.563 133.182 507.166 133.013 507.618 132.677C508.07 132.336 508.296 131.91 508.296 131.398C508.296 131.002 508.164 130.67 507.899 130.401C507.635 130.129 507.235 129.928 506.698 129.8L505.093 129.417C504.241 129.212 503.61 128.888 503.201 128.445C502.792 128.002 502.588 127.452 502.588 126.796C502.588 126.255 502.735 125.78 503.029 125.371C503.323 124.957 503.727 124.634 504.243 124.399C504.759 124.165 505.347 124.048 506.007 124.048C506.906 124.048 507.624 124.252 508.161 124.661C508.703 125.066 509.093 125.624 509.331 126.336Z" fill="black"/>
<path d="M555.739 117V103.909H556.934V109.911H564.362V103.909H565.557V117H564.362V110.985H556.934V117H555.739ZM572.607 117.205C571.759 117.205 571.009 116.989 570.357 116.559C569.71 116.129 569.202 115.534 568.836 114.776C568.469 114.013 568.286 113.133 568.286 112.136C568.286 111.13 568.469 110.246 568.836 109.483C569.202 108.716 569.71 108.119 570.357 107.693C571.009 107.263 571.759 107.048 572.607 107.048C573.455 107.048 574.203 107.263 574.851 107.693C575.499 108.124 576.006 108.72 576.372 109.483C576.743 110.246 576.928 111.13 576.928 112.136C576.928 113.133 576.745 114.013 576.379 114.776C576.012 115.534 575.503 116.129 574.851 116.559C574.203 116.989 573.455 117.205 572.607 117.205ZM572.607 116.163C573.289 116.163 573.866 115.979 574.339 115.613C574.813 115.246 575.17 114.759 575.413 114.149C575.661 113.54 575.784 112.869 575.784 112.136C575.784 111.403 575.661 110.729 575.413 110.116C575.17 109.502 574.813 109.01 574.339 108.639C573.866 108.268 573.289 108.083 572.607 108.083C571.93 108.083 571.352 108.268 570.875 108.639C570.402 109.01 570.042 109.502 569.795 110.116C569.552 110.729 569.43 111.403 569.43 112.136C569.43 112.869 569.552 113.54 569.795 114.149C570.042 114.759 570.402 115.246 570.875 115.613C571.348 115.979 571.925 116.163 572.607 116.163ZM585.665 113.248V107.182H586.802V117H585.665V115.37H585.575C585.345 115.873 584.981 116.293 584.482 116.629C583.983 116.962 583.374 117.128 582.654 117.128C582.028 117.128 581.471 116.991 580.986 116.719C580.5 116.442 580.118 116.037 579.841 115.504C579.564 114.972 579.426 114.317 579.426 113.542V107.182H580.564V113.472C580.564 114.239 580.79 114.857 581.241 115.325C581.693 115.79 582.273 116.022 582.98 116.022C583.423 116.022 583.849 115.915 584.258 115.702C584.667 115.489 585.004 115.178 585.268 114.769C585.532 114.356 585.665 113.849 585.665 113.248ZM596.411 109.336L595.369 109.63C595.267 109.336 595.122 109.07 594.935 108.831C594.747 108.592 594.502 108.403 594.2 108.262C593.901 108.121 593.531 108.051 593.087 108.051C592.423 108.051 591.877 108.209 591.451 108.524C591.025 108.839 590.812 109.246 590.812 109.745C590.812 110.167 590.957 110.51 591.246 110.774C591.54 111.034 591.992 111.241 592.602 111.394L594.085 111.759C594.907 111.959 595.523 112.276 595.932 112.711C596.345 113.146 596.552 113.691 596.552 114.347C596.552 114.901 596.398 115.393 596.092 115.824C595.785 116.254 595.357 116.593 594.807 116.84C594.261 117.083 593.629 117.205 592.908 117.205C591.95 117.205 591.159 116.989 590.537 116.559C589.915 116.124 589.516 115.498 589.342 114.68L590.435 114.411C590.575 114.995 590.85 115.436 591.259 115.734C591.673 116.033 592.216 116.182 592.889 116.182C593.643 116.182 594.246 116.013 594.698 115.677C595.15 115.336 595.376 114.91 595.376 114.398C595.376 114.002 595.244 113.67 594.979 113.401C594.715 113.129 594.315 112.928 593.778 112.8L592.173 112.417C591.321 112.212 590.69 111.888 590.281 111.445C589.872 111.002 589.668 110.452 589.668 109.796C589.668 109.255 589.815 108.78 590.109 108.371C590.403 107.957 590.808 107.634 591.323 107.399C591.839 107.165 592.427 107.048 593.087 107.048C593.987 107.048 594.705 107.252 595.241 107.661C595.783 108.066 596.173 108.624 596.411 109.336ZM603.013 117.205C602.096 117.205 601.304 116.991 600.635 116.565C599.966 116.135 599.448 115.54 599.081 114.782C598.719 114.019 598.538 113.141 598.538 112.148C598.538 111.16 598.719 110.282 599.081 109.515C599.448 108.744 599.953 108.141 600.596 107.706C601.244 107.267 601.992 107.048 602.84 107.048C603.373 107.048 603.886 107.146 604.381 107.342C604.875 107.533 605.318 107.83 605.71 108.23C606.106 108.626 606.42 109.127 606.65 109.732C606.88 110.333 606.995 111.045 606.995 111.867V112.43H599.324V111.426H605.831C605.831 110.795 605.704 110.229 605.448 109.726C605.197 109.219 604.845 108.818 604.393 108.524C603.946 108.23 603.428 108.083 602.84 108.083C602.218 108.083 601.67 108.249 601.197 108.582C600.724 108.914 600.354 109.353 600.085 109.898C599.821 110.444 599.687 111.04 599.682 111.688V112.289C599.682 113.069 599.817 113.751 600.085 114.335C600.358 114.914 600.743 115.364 601.242 115.683C601.741 116.003 602.331 116.163 603.013 116.163C603.477 116.163 603.884 116.09 604.233 115.945C604.587 115.8 604.883 115.607 605.122 115.364C605.365 115.116 605.548 114.846 605.672 114.552L606.752 114.903C606.603 115.317 606.358 115.698 606.017 116.048C605.68 116.397 605.258 116.678 604.751 116.891C604.248 117.1 603.669 117.205 603.013 117.205Z" fill="white"/>
<path d="M522.739 64V50.9091H526.964C527.893 50.9091 528.668 51.0881 529.29 51.446C529.917 51.7997 530.388 52.2812 530.703 52.8906C531.023 53.5 531.183 54.1861 531.183 54.9489C531.183 55.7116 531.025 56.3999 530.71 57.0135C530.394 57.6229 529.925 58.1065 529.303 58.4645C528.681 58.8182 527.908 58.995 526.983 58.995H523.659V57.9212H526.951C527.637 57.9212 528.206 57.7933 528.658 57.5376C529.109 57.2777 529.446 56.924 529.668 56.4766C529.893 56.0291 530.006 55.5199 530.006 54.9489C530.006 54.3778 529.893 53.8686 529.668 53.4212C529.446 52.9737 529.107 52.6222 528.651 52.3665C528.2 52.1108 527.626 51.983 526.932 51.983H523.934V64H522.739ZM536.494 64.2237C535.902 64.2237 535.361 64.1087 534.871 63.8786C534.381 63.6442 533.991 63.3075 533.701 62.8686C533.411 62.4254 533.266 61.8885 533.266 61.2578C533.266 60.772 533.358 60.3629 533.541 60.0305C533.724 59.6982 533.984 59.4254 534.321 59.2124C534.658 58.9993 535.056 58.831 535.516 58.7074C535.977 58.5838 536.484 58.4879 537.038 58.4197C537.587 58.3516 538.052 58.2919 538.431 58.2408C538.815 58.1896 539.107 58.1087 539.307 57.9979C539.507 57.8871 539.607 57.7081 539.607 57.4609V57.2308C539.607 56.5618 539.407 56.0355 539.006 55.652C538.61 55.2642 538.039 55.0703 537.293 55.0703C536.586 55.0703 536.009 55.2259 535.561 55.5369C535.118 55.848 534.807 56.2145 534.628 56.6364L533.548 56.2464C533.769 55.7095 534.076 55.2812 534.468 54.9616C534.86 54.6378 535.299 54.4055 535.785 54.2649C536.271 54.12 536.763 54.0476 537.261 54.0476C537.636 54.0476 538.026 54.0966 538.431 54.1946C538.84 54.2926 539.219 54.4631 539.569 54.706C539.918 54.9446 540.202 55.2791 540.419 55.7095C540.636 56.1357 540.745 56.6768 540.745 57.3331V64H539.607V62.4467H539.537C539.401 62.7365 539.198 63.0178 538.93 63.2905C538.661 63.5632 538.325 63.7869 537.92 63.9616C537.515 64.1364 537.04 64.2237 536.494 64.2237ZM536.648 63.1818C537.253 63.1818 537.777 63.0476 538.22 62.7791C538.663 62.5107 539.004 62.1548 539.243 61.7116C539.486 61.2642 539.607 60.772 539.607 60.2351V58.8161C539.522 58.897 539.379 58.9695 539.179 59.0334C538.983 59.0973 538.755 59.1548 538.495 59.206C538.239 59.2528 537.984 59.2933 537.728 59.3274C537.472 59.3615 537.242 59.3913 537.038 59.4169C536.484 59.4851 536.011 59.5916 535.619 59.7365C535.227 59.8814 534.926 60.0817 534.717 60.3374C534.509 60.5888 534.404 60.9126 534.404 61.3089C534.404 61.9055 534.617 62.3679 535.043 62.696C535.469 63.0199 536.004 63.1818 536.648 63.1818ZM543.772 64V54.1818H544.877V55.6903H544.961C545.157 55.196 545.498 54.7976 545.983 54.495C546.473 54.1882 547.027 54.0348 547.645 54.0348C547.739 54.0348 547.843 54.0369 547.958 54.0412C548.074 54.0455 548.169 54.0497 548.246 54.054V55.2109C548.195 55.2024 548.105 55.1896 547.978 55.1726C547.85 55.1555 547.711 55.147 547.562 55.147C547.051 55.147 546.595 55.2557 546.194 55.473C545.798 55.6861 545.485 55.9822 545.255 56.3615C545.025 56.7408 544.909 57.1733 544.909 57.6591V64H543.772ZM554.67 54.1818V55.1726H549.985V54.1818H554.67ZM551.449 51.8295H552.593V61.4368C552.593 61.8459 552.663 62.1676 552.804 62.402C552.944 62.6321 553.127 62.7962 553.353 62.8942C553.579 62.9879 553.82 63.0348 554.076 63.0348C554.225 63.0348 554.353 63.0263 554.459 63.0092C554.566 62.9879 554.659 62.9666 554.74 62.9453L554.983 63.9744C554.873 64.017 554.736 64.0554 554.574 64.0895C554.412 64.1278 554.212 64.147 553.973 64.147C553.556 64.147 553.153 64.0554 552.765 63.8722C552.382 63.6889 552.066 63.4162 551.819 63.054C551.572 62.6918 551.449 62.2422 551.449 61.7053V51.8295ZM558.392 57.8636V64H557.254V54.1818H558.36V55.7223H558.462C558.692 55.2195 559.05 54.8168 559.536 54.5142C560.026 54.2074 560.631 54.054 561.351 54.054C562.012 54.054 562.591 54.1925 563.09 54.4695C563.593 54.7422 563.983 55.1449 564.26 55.6776C564.541 56.2102 564.682 56.8643 564.682 57.6399V64H563.544V57.7102C563.544 56.9048 563.318 56.2678 562.866 55.799C562.419 55.3303 561.818 55.0959 561.064 55.0959C560.548 55.0959 560.09 55.2067 559.689 55.4283C559.289 55.6499 558.971 55.9695 558.737 56.3871C558.507 56.8004 558.392 57.2926 558.392 57.8636ZM571.647 64.2045C570.731 64.2045 569.939 63.9915 569.27 63.5653C568.6 63.1349 568.083 62.5405 567.716 61.782C567.354 61.0192 567.173 60.1413 567.173 59.1484C567.173 58.1598 567.354 57.282 567.716 56.5149C568.083 55.7436 568.588 55.1406 569.231 54.706C569.879 54.267 570.627 54.0476 571.475 54.0476C572.007 54.0476 572.521 54.1456 573.015 54.3416C573.51 54.5334 573.953 54.8295 574.345 55.2301C574.741 55.6264 575.054 56.1271 575.284 56.7322C575.515 57.3331 575.63 58.0447 575.63 58.8672V59.4297H567.959V58.4261H574.466C574.466 57.7955 574.338 57.2287 574.083 56.7259C573.831 56.2187 573.48 55.8182 573.028 55.5241C572.581 55.2301 572.063 55.0831 571.475 55.0831C570.853 55.0831 570.305 55.2493 569.832 55.5817C569.359 55.9141 568.988 56.353 568.72 56.8984C568.456 57.4439 568.321 58.0405 568.317 58.6882V59.2891C568.317 60.0689 568.451 60.7507 568.72 61.3345C568.993 61.9141 569.378 62.3636 569.877 62.6832C570.375 63.0028 570.966 63.1626 571.647 63.1626C572.112 63.1626 572.519 63.0902 572.868 62.9453C573.222 62.8004 573.518 62.6065 573.757 62.3636C574 62.1165 574.183 61.8459 574.306 61.5518L575.387 61.9034C575.238 62.3168 574.993 62.6982 574.652 63.0476C574.315 63.397 573.893 63.6783 573.386 63.8913C572.883 64.1001 572.304 64.2045 571.647 64.2045ZM578.137 64V54.1818H579.243V55.6903H579.326C579.522 55.196 579.863 54.7976 580.349 54.495C580.839 54.1882 581.393 54.0348 582.01 54.0348C582.104 54.0348 582.209 54.0369 582.324 54.0412C582.439 54.0455 582.535 54.0497 582.611 54.054V55.2109C582.56 55.2024 582.471 55.1896 582.343 55.1726C582.215 55.1555 582.077 55.147 581.927 55.147C581.416 55.147 580.96 55.2557 580.559 55.473C580.163 55.6861 579.85 55.9822 579.62 56.3615C579.39 56.7408 579.275 57.1733 579.275 57.6591V64H578.137ZM591.15 56.3359L590.108 56.63C590.005 56.3359 589.86 56.0696 589.673 55.831C589.485 55.5923 589.24 55.4027 588.938 55.2621C588.64 55.1214 588.269 55.0511 587.826 55.0511C587.161 55.0511 586.615 55.2088 586.189 55.5241C585.763 55.8395 585.55 56.2464 585.55 56.745C585.55 57.1669 585.695 57.5099 585.985 57.7741C586.279 58.0341 586.73 58.2408 587.34 58.3942L588.823 58.7585C589.645 58.9588 590.261 59.2763 590.67 59.7109C591.083 60.1456 591.29 60.6911 591.29 61.3473C591.29 61.9013 591.137 62.3935 590.83 62.8239C590.523 63.2543 590.095 63.593 589.545 63.8402C589 64.0831 588.367 64.2045 587.647 64.2045C586.688 64.2045 585.897 63.9893 585.275 63.5589C584.653 63.1243 584.255 62.4979 584.08 61.6797L585.173 61.4112C585.314 61.995 585.588 62.4361 585.998 62.7344C586.411 63.0327 586.954 63.1818 587.627 63.1818C588.382 63.1818 588.985 63.0135 589.436 62.6768C589.888 62.3359 590.114 61.9098 590.114 61.3984C590.114 61.0021 589.982 60.6697 589.718 60.4013C589.453 60.1286 589.053 59.9283 588.516 59.8004L586.912 59.4169C586.059 59.2124 585.429 58.8885 585.02 58.4453C584.61 58.0021 584.406 57.4524 584.406 56.7962C584.406 56.255 584.553 55.7798 584.847 55.3707C585.141 54.9574 585.546 54.6335 586.061 54.3991C586.577 54.1648 587.165 54.0476 587.826 54.0476C588.725 54.0476 589.443 54.2521 589.98 54.6612C590.521 55.0661 590.911 55.6243 591.15 56.3359Z" fill="white"/>
<g filter="url(#filter1_d_249_330)">
<path d="M127.962 113.962L226.814 129.072C218.469 183.666 167.446 221.159 112.852 212.814C58.2576 204.469 20.7651 153.446 29.1101 98.8518C37.4552 44.2575 88.4776 6.76496 143.072 15.11C183.62 21.3079 216.271 51.639 225.434 91.621L127.962 113.962Z" fill="url(#paint3_linear_249_330)" stroke="white"/>
<path d="M127.962 113.962L225.434 91.6208C228.25 103.906 228.718 116.613 226.814 129.072L127.962 113.962Z" fill="url(#paint4_linear_249_330)" stroke="white"/>
</g>
<path d="M199.82 119.219C199.159 119.214 198.513 119.081 197.883 118.82C197.253 118.555 196.685 118.13 196.18 117.547C195.674 116.958 195.273 116.182 194.977 115.219C194.68 114.255 194.531 113.07 194.531 111.664C194.531 110.362 194.646 109.169 194.875 108.086C195.104 107.003 195.448 106.065 195.906 105.273C196.365 104.482 196.938 103.87 197.625 103.437C198.313 103 199.117 102.781 200.039 102.781C200.904 102.781 201.667 102.961 202.328 103.32C202.99 103.674 203.526 104.169 203.938 104.805C204.349 105.44 204.607 106.172 204.711 107H203.273C203.128 106.156 202.781 105.461 202.234 104.914C201.688 104.367 200.956 104.094 200.039 104.094C198.727 104.094 197.711 104.703 196.992 105.922C196.273 107.135 195.911 108.859 195.906 111.094H196.008C196.263 110.62 196.591 110.211 196.992 109.867C197.398 109.518 197.859 109.247 198.375 109.055C198.891 108.857 199.432 108.758 200 108.758C200.891 108.758 201.706 108.984 202.445 109.437C203.185 109.885 203.776 110.503 204.219 111.289C204.661 112.07 204.883 112.964 204.883 113.969C204.883 114.922 204.672 115.799 204.25 116.602C203.833 117.404 203.245 118.042 202.484 118.516C201.729 118.99 200.841 119.224 199.82 119.219ZM199.82 117.906C200.518 117.906 201.141 117.729 201.688 117.375C202.24 117.021 202.674 116.547 202.992 115.953C203.31 115.354 203.469 114.693 203.469 113.969C203.469 113.245 203.31 112.589 202.992 112C202.674 111.411 202.24 110.943 201.688 110.594C201.141 110.245 200.518 110.07 199.82 110.07C199.289 110.07 198.794 110.18 198.336 110.398C197.878 110.612 197.479 110.906 197.141 111.281C196.807 111.651 196.552 112.076 196.375 112.555C196.203 113.034 196.138 113.536 196.18 114.062C196.237 114.797 196.427 115.456 196.75 116.039C197.078 116.617 197.505 117.073 198.031 117.406C198.563 117.74 199.159 117.906 199.82 117.906ZM216.281 116.031V115.305C216.281 114.706 216.401 114.167 216.641 113.687C216.88 113.203 217.221 112.82 217.664 112.539C218.107 112.258 218.633 112.117 219.242 112.117C219.857 112.117 220.383 112.258 220.82 112.539C221.258 112.82 221.594 113.203 221.828 113.687C222.063 114.167 222.18 114.706 222.18 115.305V116.031C222.18 116.63 222.06 117.169 221.82 117.648C221.586 118.128 221.25 118.51 220.813 118.797C220.375 119.078 219.852 119.219 219.242 119.219C218.622 119.219 218.091 119.078 217.648 118.797C217.211 118.51 216.872 118.128 216.633 117.648C216.398 117.169 216.281 116.63 216.281 116.031ZM217.508 115.305V116.031C217.508 116.62 217.651 117.122 217.938 117.539C218.229 117.951 218.664 118.156 219.242 118.156C219.805 118.156 220.229 117.951 220.516 117.539C220.802 117.122 220.945 116.62 220.945 116.031V115.305C220.945 114.716 220.805 114.216 220.523 113.805C220.242 113.388 219.815 113.18 219.242 113.18C218.674 113.18 218.242 113.388 217.945 113.805C217.654 114.216 217.508 114.716 217.508 115.305ZM208.219 106.695V105.969C208.219 105.37 208.339 104.831 208.578 104.352C208.818 103.872 209.159 103.492 209.602 103.211C210.044 102.924 210.57 102.781 211.18 102.781C211.794 102.781 212.32 102.924 212.758 103.211C213.195 103.492 213.531 103.872 213.766 104.352C214 104.831 214.117 105.37 214.117 105.969V106.695C214.117 107.294 213.997 107.836 213.758 108.32C213.523 108.799 213.187 109.18 212.75 109.461C212.313 109.742 211.789 109.883 211.18 109.883C210.56 109.883 210.029 109.742 209.586 109.461C209.148 109.18 208.81 108.799 208.57 108.32C208.336 107.836 208.219 107.294 208.219 106.695ZM209.445 105.969V106.695C209.445 107.284 209.589 107.786 209.875 108.203C210.167 108.615 210.602 108.82 211.18 108.82C211.742 108.82 212.167 108.615 212.453 108.203C212.74 107.786 212.883 107.284 212.883 106.695V105.969C212.883 105.38 212.742 104.88 212.461 104.469C212.18 104.052 211.753 103.844 211.18 103.844C210.612 103.844 210.18 104.052 209.883 104.469C209.591 104.88 209.445 105.38 209.445 105.969ZM208.938 119L219.93 103H221.312L210.32 119H208.938Z" fill="black"/>
<path d="M1.15625 48.3125V47H12.7578V48.3125H7.6875V63H6.22656V48.3125H1.15625ZM18.6816 63.25C17.6452 63.25 16.7285 62.987 15.9316 62.4609C15.14 61.9349 14.5202 61.2083 14.0723 60.2812C13.6243 59.349 13.4004 58.2734 13.4004 57.0547C13.4004 55.8255 13.6243 54.7448 14.0723 53.8125C14.5202 52.875 15.14 52.1458 15.9316 51.625C16.7285 51.099 17.6452 50.8359 18.6816 50.8359C19.7181 50.8359 20.6322 51.099 21.4238 51.625C22.2155 52.151 22.8353 52.8802 23.2832 53.8125C23.7363 54.7448 23.9629 55.8255 23.9629 57.0547C23.9629 58.2734 23.7389 59.349 23.291 60.2812C22.8431 61.2083 22.2207 61.9349 21.4238 62.4609C20.6322 62.987 19.7181 63.25 18.6816 63.25ZM18.6816 61.9766C19.515 61.9766 20.2207 61.7526 20.7988 61.3047C21.377 60.8568 21.8145 60.2604 22.1113 59.5156C22.4134 58.7708 22.5645 57.9505 22.5645 57.0547C22.5645 56.1589 22.4134 55.3359 22.1113 54.5859C21.8145 53.8359 21.377 53.2344 20.7988 52.7812C20.2207 52.3281 19.515 52.1016 18.6816 52.1016C17.8535 52.1016 17.1478 52.3281 16.5645 52.7812C15.9863 53.2344 15.5462 53.8359 15.2441 54.5859C14.9473 55.3359 14.7988 56.1589 14.7988 57.0547C14.7988 57.9505 14.9473 58.7708 15.2441 59.5156C15.5462 60.2604 15.9863 60.8568 16.5645 61.3047C17.1426 61.7526 17.8483 61.9766 18.6816 61.9766ZM31.7422 51V52.2109H26.0156V51H31.7422ZM27.8047 48.125H29.2031V59.8672C29.2031 60.3672 29.2891 60.7604 29.4609 61.0469C29.6328 61.3281 29.8568 61.5286 30.1328 61.6484C30.4089 61.763 30.7031 61.8203 31.0156 61.8203C31.1979 61.8203 31.3542 61.8099 31.4844 61.7891C31.6146 61.763 31.7292 61.737 31.8281 61.7109L32.125 62.9687C31.9896 63.0208 31.8229 63.0677 31.625 63.1094C31.4271 63.1563 31.1823 63.1797 30.8906 63.1797C30.3802 63.1797 29.888 63.0677 29.4141 62.8437C28.9453 62.6198 28.5599 62.2865 28.2578 61.8437C27.9557 61.401 27.8047 60.8516 27.8047 60.1953V48.125ZM38.252 63.2734C37.528 63.2734 36.8665 63.1328 36.2676 62.8516C35.6686 62.5651 35.1921 62.1536 34.8379 61.6172C34.4837 61.0755 34.3066 60.4193 34.3066 59.6484C34.3066 59.0547 34.4186 58.5547 34.6426 58.1484C34.8665 57.7422 35.1842 57.4089 35.5957 57.1484C36.0072 56.888 36.4941 56.6823 37.0566 56.5312C37.6191 56.3802 38.2389 56.263 38.916 56.1797C39.5879 56.0964 40.1556 56.0234 40.6191 55.9609C41.0879 55.8984 41.4447 55.7995 41.6895 55.6641C41.9342 55.5286 42.0566 55.3099 42.0566 55.0078V54.7266C42.0566 53.9089 41.8118 53.2656 41.3223 52.7969C40.8379 52.3229 40.14 52.0859 39.2285 52.0859C38.3639 52.0859 37.6582 52.276 37.1113 52.6562C36.5697 53.0365 36.1895 53.4844 35.9707 54L34.6504 53.5234C34.9212 52.8672 35.2962 52.3437 35.7754 51.9531C36.2546 51.5573 36.791 51.2734 37.3848 51.1016C37.9785 50.9245 38.5801 50.8359 39.1895 50.8359C39.6478 50.8359 40.1243 50.8958 40.6191 51.0156C41.1191 51.1354 41.5827 51.3437 42.0098 51.6406C42.4368 51.9323 42.7832 52.3411 43.0488 52.8672C43.3145 53.388 43.4473 54.0495 43.4473 54.8516V63H42.0566V61.1016H41.9707C41.804 61.4557 41.5566 61.7995 41.2285 62.1328C40.9004 62.4661 40.4889 62.7396 39.9941 62.9531C39.4993 63.1667 38.9186 63.2734 38.252 63.2734ZM38.4395 62C39.179 62 39.8197 61.8359 40.3613 61.5078C40.903 61.1797 41.3197 60.7448 41.6113 60.2031C41.9082 59.6562 42.0566 59.0547 42.0566 58.3984V56.6641C41.9525 56.763 41.778 56.8516 41.5332 56.9297C41.2936 57.0078 41.015 57.0781 40.6973 57.1406C40.3848 57.1979 40.0723 57.2474 39.7598 57.2891C39.4473 57.3307 39.166 57.3672 38.916 57.3984C38.2389 57.4818 37.6608 57.612 37.1816 57.7891C36.7025 57.9661 36.3353 58.2109 36.0801 58.5234C35.8249 58.8307 35.6973 59.2266 35.6973 59.7109C35.6973 60.4401 35.9577 61.0052 36.4785 61.4062C36.9993 61.8021 37.653 62 38.4395 62ZM48.5371 47V63H47.1465V47H48.5371ZM69.7637 52C69.6178 51.4687 69.4043 50.9714 69.123 50.5078C68.8418 50.0391 68.4928 49.6302 68.0762 49.2812C67.6647 48.9271 67.1882 48.651 66.6465 48.4531C66.11 48.2552 65.5111 48.1562 64.8496 48.1562C63.8079 48.1562 62.8757 48.4271 62.0527 48.9687C61.2298 49.5104 60.5788 50.2917 60.0996 51.3125C59.6257 52.3333 59.3887 53.5625 59.3887 55C59.3887 56.4323 59.6283 57.6589 60.1074 58.6797C60.5866 59.7005 61.2428 60.4844 62.0762 61.0312C62.9147 61.5729 63.873 61.8437 64.9512 61.8437C65.9355 61.8437 66.8053 61.625 67.5605 61.1875C68.3158 60.75 68.9043 60.125 69.3262 59.3125C69.7533 58.5 69.9616 57.5339 69.9512 56.4141L70.4199 56.5625H65.2949V55.25H71.373V56.5625C71.373 57.9271 71.097 59.1068 70.5449 60.1016C69.9928 61.0964 69.235 61.8646 68.2715 62.4062C67.3079 62.9479 66.2012 63.2187 64.9512 63.2187C63.5553 63.2187 62.334 62.8828 61.2871 62.2109C60.2402 61.5339 59.4251 60.5807 58.8418 59.3516C58.2637 58.1172 57.9746 56.6667 57.9746 55C57.9746 53.7448 58.1413 52.612 58.4746 51.6016C58.8079 50.5911 59.2793 49.7266 59.8887 49.0078C60.5033 48.2891 61.2298 47.7396 62.0684 47.3594C62.9069 46.974 63.834 46.7812 64.8496 46.7812C65.7246 46.7812 66.5241 46.9193 67.248 47.1953C67.9772 47.4714 68.6178 47.8516 69.1699 48.3359C69.7272 48.8151 70.1829 49.3698 70.5371 50C70.8965 50.625 71.1387 51.2917 71.2637 52H69.7637ZM74.7109 63V51H76.0625V52.8437H76.1641C76.4036 52.2396 76.8203 51.7526 77.4141 51.3828C78.013 51.0078 78.6901 50.8203 79.4453 50.8203C79.5599 50.8203 79.6875 50.8229 79.8281 50.8281C79.9688 50.8333 80.0859 50.8385 80.1797 50.8438V52.2578C80.1172 52.2474 80.0078 52.2318 79.8516 52.2109C79.6953 52.1901 79.526 52.1797 79.3438 52.1797C78.7188 52.1797 78.1615 52.3125 77.6719 52.5781C77.1875 52.8385 76.8047 53.2005 76.5234 53.6641C76.2422 54.1276 76.1016 54.6562 76.1016 55.25V63H74.7109ZM87.0391 63.25C85.9193 63.25 84.9505 62.9896 84.1328 62.4687C83.3151 61.9427 82.6823 61.2161 82.2344 60.2891C81.7917 59.3568 81.5703 58.2839 81.5703 57.0703C81.5703 55.862 81.7917 54.7891 82.2344 53.8516C82.6823 52.9089 83.2995 52.1719 84.0859 51.6406C84.8776 51.1042 85.7917 50.8359 86.8281 50.8359C87.4792 50.8359 88.1068 50.9557 88.7109 51.1953C89.3151 51.4297 89.8568 51.7917 90.3359 52.2812C90.8203 52.7656 91.2031 53.3776 91.4844 54.1172C91.7656 54.8516 91.9062 55.7214 91.9062 56.7266V57.4141H82.5313V56.1875H90.4844C90.4844 55.4167 90.3281 54.724 90.0156 54.1094C89.7083 53.4896 89.2786 53 88.7266 52.6406C88.1797 52.2812 87.5469 52.1016 86.8281 52.1016C86.0677 52.1016 85.3984 52.3047 84.8203 52.7109C84.2422 53.1172 83.7891 53.6536 83.4609 54.3203C83.138 54.987 82.974 55.7161 82.9688 56.5078V57.2422C82.9688 58.1953 83.1328 59.0286 83.4609 59.7422C83.7943 60.4505 84.2656 61 84.875 61.3906C85.4844 61.7812 86.2057 61.9766 87.0391 61.9766C87.6068 61.9766 88.1042 61.888 88.5313 61.7109C88.9635 61.5339 89.3255 61.2969 89.6172 61C89.9141 60.6979 90.138 60.3672 90.2891 60.0078L91.6094 60.4375C91.4271 60.9427 91.1276 61.4089 90.7109 61.8359C90.2995 62.263 89.7839 62.6068 89.1641 62.8672C88.5495 63.1224 87.8411 63.25 87.0391 63.25ZM99.8223 63.25C98.7025 63.25 97.7337 62.9896 96.916 62.4687C96.0983 61.9427 95.4655 61.2161 95.0176 60.2891C94.5749 59.3568 94.3535 58.2839 94.3535 57.0703C94.3535 55.862 94.5749 54.7891 95.0176 53.8516C95.4655 52.9089 96.0827 52.1719 96.8691 51.6406C97.6608 51.1042 98.5749 50.8359 99.6113 50.8359C100.262 50.8359 100.89 50.9557 101.494 51.1953C102.098 51.4297 102.64 51.7917 103.119 52.2812C103.604 52.7656 103.986 53.3776 104.268 54.1172C104.549 54.8516 104.689 55.7214 104.689 56.7266V57.4141H95.3145V56.1875H103.268C103.268 55.4167 103.111 54.724 102.799 54.1094C102.492 53.4896 102.062 53 101.51 52.6406C100.963 52.2812 100.33 52.1016 99.6113 52.1016C98.8509 52.1016 98.1816 52.3047 97.6035 52.7109C97.0254 53.1172 96.5723 53.6536 96.2441 54.3203C95.9212 54.987 95.7572 55.7161 95.752 56.5078V57.2422C95.752 58.1953 95.916 59.0286 96.2441 59.7422C96.5775 60.4505 97.0488 61 97.6582 61.3906C98.2676 61.7812 98.9889 61.9766 99.8223 61.9766C100.39 61.9766 100.887 61.888 101.314 61.7109C101.747 61.5339 102.109 61.2969 102.4 61C102.697 60.6979 102.921 60.3672 103.072 60.0078L104.393 60.4375C104.21 60.9427 103.911 61.4089 103.494 61.8359C103.083 62.263 102.567 62.6068 101.947 62.8672C101.333 63.1224 100.624 63.25 99.8223 63.25ZM109.145 55.5V63H107.754V51H109.105V52.8828H109.23C109.512 52.2682 109.949 51.776 110.543 51.4063C111.142 51.0313 111.882 50.8438 112.762 50.8438C113.569 50.8438 114.277 51.013 114.887 51.3516C115.501 51.6849 115.978 52.1771 116.316 52.8281C116.66 53.4792 116.832 54.2786 116.832 55.2266V63H115.441V55.3125C115.441 54.3281 115.165 53.5495 114.613 52.9766C114.066 52.4036 113.332 52.1172 112.41 52.1172C111.78 52.1172 111.22 52.2526 110.73 52.5234C110.241 52.7943 109.853 53.1849 109.566 53.6953C109.285 54.2005 109.145 54.8021 109.145 55.5ZM120.783 63V47H125.947C127.083 47 128.031 47.2057 128.791 47.6172C129.557 48.0234 130.132 48.5885 130.518 49.3125C130.908 50.0312 131.104 50.8568 131.104 51.7891C131.104 52.7214 130.908 53.5443 130.518 54.2578C130.132 54.9714 129.559 55.5286 128.799 55.9297C128.038 56.3307 127.096 56.5312 125.971 56.5312H121.572V55.1953H125.932C126.765 55.1953 127.458 55.0573 128.01 54.7812C128.567 54.5052 128.981 54.112 129.252 53.6016C129.528 53.0911 129.666 52.487 129.666 51.7891C129.666 51.0911 129.528 50.4818 129.252 49.9609C128.976 49.4349 128.559 49.0286 128.002 48.7422C127.45 48.4557 126.752 48.3125 125.908 48.3125H122.244V63H120.783ZM127.838 55.7812L131.775 63H130.088L126.189 55.7812H127.838ZM138.908 63.25C137.872 63.25 136.955 62.987 136.158 62.4609C135.367 61.9349 134.747 61.2083 134.299 60.2812C133.851 59.349 133.627 58.2734 133.627 57.0547C133.627 55.8255 133.851 54.7448 134.299 53.8125C134.747 52.875 135.367 52.1458 136.158 51.625C136.955 51.099 137.872 50.8359 138.908 50.8359C139.945 50.8359 140.859 51.099 141.65 51.625C142.442 52.151 143.062 52.8802 143.51 53.8125C143.963 54.7448 144.189 55.8255 144.189 57.0547C144.189 58.2734 143.965 59.349 143.518 60.2812C143.07 61.2083 142.447 61.9349 141.65 62.4609C140.859 62.987 139.945 63.25 138.908 63.25ZM138.908 61.9766C139.742 61.9766 140.447 61.7526 141.025 61.3047C141.604 60.8568 142.041 60.2604 142.338 59.5156C142.64 58.7708 142.791 57.9505 142.791 57.0547C142.791 56.1589 142.64 55.3359 142.338 54.5859C142.041 53.8359 141.604 53.2344 141.025 52.7812C140.447 52.3281 139.742 52.1016 138.908 52.1016C138.08 52.1016 137.374 52.3281 136.791 52.7812C136.213 53.2344 135.773 53.8359 135.471 54.5859C135.174 55.3359 135.025 56.1589 135.025 57.0547C135.025 57.9505 135.174 58.7708 135.471 59.5156C135.773 60.2604 136.213 60.8568 136.791 61.3047C137.369 61.7526 138.075 61.9766 138.908 61.9766ZM154.867 58.4141V51H156.258V63H154.867V61.0078H154.758C154.477 61.6224 154.031 62.1354 153.422 62.5469C152.813 62.9531 152.068 63.1563 151.188 63.1563C150.422 63.1563 149.742 62.9896 149.148 62.6562C148.555 62.3177 148.089 61.8229 147.75 61.1719C147.411 60.5208 147.242 59.7214 147.242 58.7734V51H148.633V58.6875C148.633 59.625 148.909 60.3802 149.461 60.9531C150.013 61.5208 150.721 61.8047 151.586 61.8047C152.128 61.8047 152.648 61.6745 153.148 61.4141C153.648 61.1536 154.06 60.7734 154.383 60.2734C154.706 59.7682 154.867 59.1484 154.867 58.4141ZM161.33 47V63H159.939V47H161.33ZM169.861 63.25C168.742 63.25 167.773 62.9896 166.955 62.4687C166.137 61.9427 165.505 61.2161 165.057 60.2891C164.614 59.3568 164.393 58.2839 164.393 57.0703C164.393 55.862 164.614 54.7891 165.057 53.8516C165.505 52.9089 166.122 52.1719 166.908 51.6406C167.7 51.1042 168.614 50.8359 169.65 50.8359C170.301 50.8359 170.929 50.9557 171.533 51.1953C172.137 51.4297 172.679 51.7917 173.158 52.2812C173.643 52.7656 174.025 53.3776 174.307 54.1172C174.588 54.8516 174.729 55.7214 174.729 56.7266V57.4141H165.354V56.1875H173.307C173.307 55.4167 173.15 54.724 172.838 54.1094C172.531 53.4896 172.101 53 171.549 52.6406C171.002 52.2812 170.369 52.1016 169.65 52.1016C168.89 52.1016 168.221 52.3047 167.643 52.7109C167.064 53.1172 166.611 53.6536 166.283 54.3203C165.96 54.987 165.796 55.7161 165.791 56.5078V57.2422C165.791 58.1953 165.955 59.0286 166.283 59.7422C166.617 60.4505 167.088 61 167.697 61.3906C168.307 61.7812 169.028 61.9766 169.861 61.9766C170.429 61.9766 170.926 61.888 171.354 61.7109C171.786 61.5339 172.148 61.2969 172.439 61C172.736 60.6979 172.96 60.3672 173.111 60.0078L174.432 60.4375C174.249 60.9427 173.95 61.4089 173.533 61.8359C173.122 62.263 172.606 62.6068 171.986 62.8672C171.372 63.1224 170.663 63.25 169.861 63.25ZM182.52 51V52.2109H176.793V51H182.52ZM178.582 48.125H179.98V59.8672C179.98 60.3672 180.066 60.7604 180.238 61.0469C180.41 61.3281 180.634 61.5286 180.91 61.6484C181.186 61.763 181.48 61.8203 181.793 61.8203C181.975 61.8203 182.132 61.8099 182.262 61.7891C182.392 61.763 182.507 61.737 182.605 61.7109L182.902 62.9687C182.767 63.0208 182.6 63.0677 182.402 63.1094C182.204 63.1563 181.96 63.1797 181.668 63.1797C181.158 63.1797 180.665 63.0677 180.191 62.8437C179.723 62.6198 179.337 62.2865 179.035 61.8437C178.733 61.401 178.582 60.8516 178.582 60.1953V48.125ZM190.404 51V52.2109H184.678V51H190.404ZM186.467 48.125H187.865V59.8672C187.865 60.3672 187.951 60.7604 188.123 61.0469C188.295 61.3281 188.519 61.5286 188.795 61.6484C189.071 61.763 189.365 61.8203 189.678 61.8203C189.86 61.8203 190.016 61.8099 190.146 61.7891C190.277 61.763 190.391 61.737 190.49 61.7109L190.787 62.9687C190.652 63.0208 190.485 63.0677 190.287 63.1094C190.089 63.1563 189.844 63.1797 189.553 63.1797C189.042 63.1797 188.55 63.0677 188.076 62.8437C187.607 62.6198 187.222 62.2865 186.92 61.8437C186.618 61.401 186.467 60.8516 186.467 60.1953V48.125ZM198.285 63.25C197.165 63.25 196.197 62.9896 195.379 62.4687C194.561 61.9427 193.928 61.2161 193.48 60.2891C193.038 59.3568 192.816 58.2839 192.816 57.0703C192.816 55.862 193.038 54.7891 193.48 53.8516C193.928 52.9089 194.546 52.1719 195.332 51.6406C196.124 51.1042 197.038 50.8359 198.074 50.8359C198.725 50.8359 199.353 50.9557 199.957 51.1953C200.561 51.4297 201.103 51.7917 201.582 52.2812C202.066 52.7656 202.449 53.3776 202.73 54.1172C203.012 54.8516 203.152 55.7214 203.152 56.7266V57.4141H193.777V56.1875H201.73C201.73 55.4167 201.574 54.724 201.262 54.1094C200.954 53.4896 200.525 53 199.973 52.6406C199.426 52.2812 198.793 52.1016 198.074 52.1016C197.314 52.1016 196.645 52.3047 196.066 52.7109C195.488 53.1172 195.035 53.6536 194.707 54.3203C194.384 54.987 194.22 55.7161 194.215 56.5078V57.2422C194.215 58.1953 194.379 59.0286 194.707 59.7422C195.04 60.4505 195.512 61 196.121 61.3906C196.73 61.7812 197.452 61.9766 198.285 61.9766C198.853 61.9766 199.35 61.888 199.777 61.7109C200.21 61.5339 200.572 61.2969 200.863 61C201.16 60.6979 201.384 60.3672 201.535 60.0078L202.855 60.4375C202.673 60.9427 202.374 61.4089 201.957 61.8359C201.546 62.263 201.03 62.6068 200.41 62.8672C199.796 63.1224 199.087 63.25 198.285 63.25ZM212.693 63V47H217.857C218.993 47 219.941 47.2187 220.701 47.6562C221.467 48.0885 222.042 48.6771 222.428 49.4219C222.818 50.1667 223.014 51.0052 223.014 51.9375C223.014 52.8698 222.821 53.7109 222.436 54.4609C222.05 55.2057 221.477 55.7969 220.717 56.2344C219.956 56.6667 219.011 56.8828 217.881 56.8828H213.818V55.5703H217.842C218.68 55.5703 219.376 55.4141 219.928 55.1016C220.48 54.7839 220.891 54.3516 221.162 53.8047C221.438 53.2578 221.576 52.6354 221.576 51.9375C221.576 51.2396 221.438 50.6172 221.162 50.0703C220.891 49.5234 220.477 49.0938 219.92 48.7813C219.368 48.4687 218.667 48.3125 217.818 48.3125H214.154V63H212.693ZM230.689 63.25C229.653 63.25 228.736 62.987 227.939 62.4609C227.148 61.9349 226.528 61.2083 226.08 60.2812C225.632 59.349 225.408 58.2734 225.408 57.0547C225.408 55.8255 225.632 54.7448 226.08 53.8125C226.528 52.875 227.148 52.1458 227.939 51.625C228.736 51.099 229.653 50.8359 230.689 50.8359C231.726 50.8359 232.64 51.099 233.432 51.625C234.223 52.151 234.843 52.8802 235.291 53.8125C235.744 54.7448 235.971 55.8255 235.971 57.0547C235.971 58.2734 235.747 59.349 235.299 60.2812C234.851 61.2083 234.229 61.9349 233.432 62.4609C232.64 62.987 231.726 63.25 230.689 63.25ZM230.689 61.9766C231.523 61.9766 232.229 61.7526 232.807 61.3047C233.385 60.8568 233.822 60.2604 234.119 59.5156C234.421 58.7708 234.572 57.9505 234.572 57.0547C234.572 56.1589 234.421 55.3359 234.119 54.5859C233.822 53.8359 233.385 53.2344 232.807 52.7812C232.229 52.3281 231.523 52.1016 230.689 52.1016C229.861 52.1016 229.156 52.3281 228.572 52.7812C227.994 53.2344 227.554 53.8359 227.252 54.5859C226.955 55.3359 226.807 56.1589 226.807 57.0547C226.807 57.9505 226.955 58.7708 227.252 59.5156C227.554 60.2604 227.994 60.8568 228.572 61.3047C229.15 61.7526 229.856 61.9766 230.689 61.9766ZM243.688 63.25C242.651 63.25 241.734 62.987 240.938 62.4609C240.146 61.9349 239.526 61.2083 239.078 60.2812C238.63 59.349 238.406 58.2734 238.406 57.0547C238.406 55.8255 238.63 54.7448 239.078 53.8125C239.526 52.875 240.146 52.1458 240.938 51.625C241.734 51.099 242.651 50.8359 243.688 50.8359C244.724 50.8359 245.638 51.099 246.43 51.625C247.221 52.151 247.841 52.8802 248.289 53.8125C248.742 54.7448 248.969 55.8255 248.969 57.0547C248.969 58.2734 248.745 59.349 248.297 60.2812C247.849 61.2083 247.227 61.9349 246.43 62.4609C245.638 62.987 244.724 63.25 243.688 63.25ZM243.688 61.9766C244.521 61.9766 245.227 61.7526 245.805 61.3047C246.383 60.8568 246.82 60.2604 247.117 59.5156C247.419 58.7708 247.57 57.9505 247.57 57.0547C247.57 56.1589 247.419 55.3359 247.117 54.5859C246.82 53.8359 246.383 53.2344 245.805 52.7812C245.227 52.3281 244.521 52.1016 243.688 52.1016C242.859 52.1016 242.154 52.3281 241.57 52.7812C240.992 53.2344 240.552 53.8359 240.25 54.5859C239.953 55.3359 239.805 56.1589 239.805 57.0547C239.805 57.9505 239.953 58.7708 240.25 59.5156C240.552 60.2604 240.992 60.8568 241.57 61.3047C242.148 61.7526 242.854 61.9766 243.688 61.9766ZM253.412 47V63H252.021V47H253.412Z" fill="black"/>
<path d="M120.594 250.312L120.812 249H132.414L132.195 250.312H127.125L124.688 265H123.227L125.664 250.312H120.594ZM135.391 257.5L134.148 265H132.758L135.414 249H136.805L135.836 254.883H135.961C136.336 254.258 136.852 253.763 137.508 253.398C138.164 253.029 138.948 252.844 139.859 252.844C140.667 252.844 141.349 253.01 141.906 253.344C142.469 253.677 142.867 254.169 143.102 254.82C143.341 255.471 143.383 256.273 143.227 257.227L141.922 265H140.523L141.805 257.312C141.966 256.323 141.82 255.544 141.367 254.977C140.919 254.404 140.232 254.117 139.305 254.117C138.669 254.117 138.076 254.253 137.523 254.523C136.977 254.794 136.513 255.185 136.133 255.695C135.758 256.201 135.51 256.802 135.391 257.5ZM150.404 265.25C149.285 265.25 148.36 264.99 147.631 264.469C146.902 263.943 146.391 263.216 146.1 262.289C145.808 261.357 145.764 260.284 145.967 259.07C146.17 257.862 146.571 256.789 147.17 255.852C147.769 254.909 148.508 254.172 149.389 253.641C150.269 253.104 151.225 252.836 152.256 252.836C152.907 252.836 153.516 252.956 154.084 253.195C154.652 253.43 155.133 253.792 155.529 254.281C155.93 254.766 156.209 255.378 156.365 256.117C156.521 256.852 156.516 257.721 156.35 258.727L156.24 259.414H146.865L147.061 258.187H155.021C155.152 257.417 155.115 256.724 154.912 256.109C154.709 255.495 154.363 255.008 153.873 254.648C153.389 254.284 152.787 254.102 152.068 254.102C151.334 254.102 150.639 254.307 149.982 254.719C149.331 255.13 148.779 255.667 148.326 256.328C147.878 256.984 147.589 257.685 147.459 258.43L147.303 259.352C147.136 260.367 147.157 261.219 147.365 261.906C147.574 262.589 147.951 263.104 148.498 263.453C149.045 263.802 149.745 263.977 150.6 263.977C151.173 263.977 151.691 263.888 152.154 263.711C152.618 263.534 153.021 263.297 153.365 263C153.709 262.698 153.985 262.367 154.193 262.008L155.436 262.437C155.17 262.943 154.795 263.409 154.311 263.836C153.831 264.263 153.261 264.607 152.6 264.867C151.943 265.122 151.212 265.25 150.404 265.25ZM168.852 265.25C167.867 265.25 167.047 264.99 166.391 264.469C165.734 263.948 165.276 263.221 165.016 262.289C164.755 261.357 164.727 260.271 164.93 259.031C165.138 257.797 165.526 256.716 166.094 255.789C166.667 254.857 167.367 254.133 168.195 253.617C169.029 253.096 169.938 252.836 170.922 252.836C171.656 252.836 172.242 252.966 172.68 253.227C173.122 253.482 173.458 253.799 173.688 254.18C173.917 254.56 174.081 254.93 174.18 255.289H174.305L175.352 249H176.75L174.094 265H172.742L173.117 262.773H172.945C172.721 263.138 172.427 263.513 172.063 263.898C171.703 264.279 171.26 264.599 170.734 264.859C170.208 265.12 169.581 265.25 168.852 265.25ZM169.156 263.977C169.932 263.977 170.633 263.766 171.258 263.344C171.888 262.917 172.414 262.331 172.836 261.586C173.263 260.836 173.555 259.977 173.711 259.008C173.872 258.049 173.87 257.203 173.703 256.469C173.536 255.729 173.214 255.151 172.734 254.734C172.255 254.312 171.622 254.102 170.836 254.102C170.039 254.102 169.331 254.32 168.711 254.758C168.091 255.19 167.578 255.776 167.172 256.516C166.771 257.255 166.492 258.086 166.336 259.008C166.185 259.94 166.185 260.781 166.336 261.531C166.487 262.281 166.794 262.878 167.258 263.32C167.727 263.758 168.359 263.977 169.156 263.977ZM178.063 265L180.063 253H181.461L179.461 265H178.063ZM181.266 250.914C180.974 250.914 180.727 250.815 180.523 250.617C180.326 250.419 180.229 250.18 180.234 249.898C180.245 249.633 180.352 249.404 180.555 249.211C180.763 249.013 181.008 248.914 181.289 248.914C181.581 248.914 181.828 249.016 182.031 249.219C182.234 249.417 182.331 249.656 182.32 249.937C182.315 250.203 182.208 250.432 182 250.625C181.792 250.818 181.547 250.914 181.266 250.914ZM192.764 255.633L191.428 255.977C191.36 255.617 191.235 255.294 191.053 255.008C190.876 254.716 190.618 254.487 190.279 254.32C189.946 254.148 189.508 254.062 188.967 254.062C188.154 254.062 187.454 254.26 186.865 254.656C186.277 255.047 185.933 255.547 185.834 256.156C185.751 256.667 185.857 257.081 186.154 257.398C186.456 257.716 186.962 257.966 187.67 258.148L189.42 258.594C190.389 258.844 191.079 259.234 191.49 259.766C191.907 260.297 192.05 260.969 191.92 261.781C191.805 262.458 191.516 263.057 191.053 263.578C190.594 264.099 190.006 264.508 189.287 264.805C188.574 265.102 187.777 265.25 186.896 265.25C185.714 265.25 184.785 264.984 184.107 264.453C183.436 263.922 183.076 263.156 183.029 262.156L184.428 261.844C184.469 262.552 184.712 263.089 185.154 263.453C185.602 263.818 186.232 264 187.045 264C187.972 264 188.751 263.789 189.381 263.367C190.011 262.945 190.373 262.424 190.467 261.805C190.555 261.315 190.464 260.909 190.193 260.586C189.928 260.263 189.475 260.023 188.834 259.867L186.967 259.398C185.962 259.143 185.251 258.745 184.834 258.203C184.423 257.656 184.285 256.982 184.42 256.18C184.529 255.518 184.805 254.937 185.248 254.437C185.691 253.937 186.251 253.547 186.928 253.266C187.605 252.979 188.344 252.836 189.146 252.836C190.251 252.836 191.092 253.086 191.67 253.586C192.248 254.081 192.613 254.763 192.764 255.633ZM201.145 253L200.949 254.211H195.215L195.418 253H201.145ZM197.676 250.125H199.074L197.121 261.867C197.038 262.367 197.059 262.76 197.184 263.047C197.309 263.328 197.501 263.529 197.762 263.648C198.022 263.763 198.309 263.82 198.621 263.82C198.803 263.82 198.96 263.81 199.09 263.789C199.225 263.763 199.345 263.737 199.449 263.711L199.551 264.969C199.4 265.021 199.22 265.068 199.012 265.109C198.803 265.156 198.553 265.18 198.262 265.18C197.751 265.18 197.28 265.068 196.848 264.844C196.415 264.62 196.087 264.286 195.863 263.844C195.639 263.401 195.579 262.852 195.684 262.195L197.676 250.125ZM202.303 265L204.303 253H205.654L205.342 254.844H205.443C205.777 254.24 206.274 253.753 206.936 253.383C207.602 253.008 208.313 252.82 209.068 252.82C209.183 252.82 209.311 252.823 209.451 252.828C209.592 252.828 209.709 252.833 209.803 252.844L209.561 254.258C209.498 254.247 209.389 254.232 209.232 254.211C209.081 254.19 208.912 254.18 208.725 254.18C208.1 254.18 207.521 254.312 206.99 254.578C206.464 254.839 206.021 255.201 205.662 255.664C205.308 256.128 205.079 256.656 204.975 257.25L203.693 265H202.303ZM210.182 265L212.182 253H213.58L211.58 265H210.182ZM213.385 250.914C213.093 250.914 212.846 250.815 212.643 250.617C212.445 250.419 212.348 250.18 212.354 249.898C212.364 249.633 212.471 249.404 212.674 249.211C212.882 249.013 213.127 248.914 213.408 248.914C213.7 248.914 213.947 249.016 214.15 249.219C214.354 249.417 214.45 249.656 214.439 249.937C214.434 250.203 214.327 250.432 214.119 250.625C213.911 250.818 213.666 250.914 213.385 250.914ZM215.547 265L218.203 249H219.602L218.57 255.289H218.695C218.909 254.93 219.193 254.56 219.547 254.18C219.906 253.799 220.349 253.482 220.875 253.227C221.401 252.966 222.031 252.836 222.766 252.836C223.75 252.836 224.57 253.096 225.227 253.617C225.888 254.133 226.349 254.857 226.609 255.789C226.87 256.716 226.898 257.797 226.695 259.031C226.487 260.271 226.099 261.357 225.531 262.289C224.964 263.221 224.266 263.948 223.438 264.469C222.609 264.99 221.706 265.25 220.727 265.25C219.997 265.25 219.409 265.12 218.961 264.859C218.518 264.599 218.18 264.279 217.945 263.898C217.716 263.513 217.549 263.138 217.445 262.773H217.273L216.898 265H215.547ZM217.922 259.008C217.766 259.977 217.766 260.836 217.922 261.586C218.083 262.331 218.398 262.917 218.867 263.344C219.341 263.766 219.966 263.977 220.742 263.977C221.539 263.977 222.25 263.758 222.875 263.32C223.505 262.878 224.026 262.281 224.438 261.531C224.854 260.781 225.141 259.94 225.297 259.008C225.448 258.086 225.445 257.255 225.289 256.516C225.133 255.776 224.818 255.19 224.344 254.758C223.87 254.32 223.232 254.102 222.43 254.102C221.648 254.102 220.945 254.312 220.32 254.734C219.701 255.151 219.185 255.729 218.773 256.469C218.362 257.203 218.078 258.049 217.922 259.008ZM237.133 260.414L238.375 253H239.766L237.766 265H236.375L236.703 263.008H236.602C236.227 263.622 235.695 264.135 235.008 264.547C234.326 264.953 233.544 265.156 232.664 265.156C231.898 265.156 231.245 264.99 230.703 264.656C230.167 264.318 229.784 263.823 229.555 263.172C229.326 262.521 229.289 261.721 229.445 260.773L230.75 253H232.141L230.859 260.687C230.708 261.625 230.859 262.38 231.313 262.953C231.771 263.521 232.432 263.805 233.297 263.805C233.839 263.805 234.38 263.674 234.922 263.414C235.469 263.154 235.943 262.773 236.344 262.273C236.75 261.768 237.013 261.148 237.133 260.414ZM248.174 253L247.979 254.211H242.244L242.447 253H248.174ZM244.705 250.125H246.104L244.15 261.867C244.067 262.367 244.088 262.76 244.213 263.047C244.338 263.328 244.531 263.529 244.791 263.648C245.051 263.763 245.338 263.82 245.65 263.82C245.833 263.82 245.989 263.81 246.119 263.789C246.255 263.763 246.374 263.737 246.479 263.711L246.58 264.969C246.429 265.021 246.249 265.068 246.041 265.109C245.833 265.156 245.583 265.18 245.291 265.18C244.781 265.18 244.309 265.068 243.877 264.844C243.445 264.62 243.117 264.286 242.893 263.844C242.669 263.401 242.609 262.852 242.713 262.195L244.705 250.125ZM249.348 265L251.348 253H252.746L250.746 265H249.348ZM252.551 250.914C252.259 250.914 252.012 250.815 251.809 250.617C251.611 250.419 251.514 250.18 251.52 249.898C251.53 249.633 251.637 249.404 251.84 249.211C252.048 249.013 252.293 248.914 252.574 248.914C252.866 248.914 253.113 249.016 253.316 249.219C253.52 249.417 253.616 249.656 253.605 249.937C253.6 250.203 253.493 250.432 253.285 250.625C253.077 250.818 252.832 250.914 252.551 250.914ZM259.143 265.25C258.09 265.25 257.205 264.984 256.486 264.453C255.768 263.917 255.26 263.174 254.963 262.227C254.666 261.279 254.617 260.185 254.814 258.945C255.012 257.737 255.406 256.674 255.994 255.758C256.588 254.836 257.317 254.12 258.182 253.609C259.046 253.094 259.986 252.836 261.002 252.836C262.059 252.836 262.945 253.104 263.658 253.641C264.377 254.177 264.885 254.919 265.182 255.867C265.484 256.815 265.536 257.911 265.338 259.156C265.14 260.359 264.744 261.419 264.15 262.336C263.557 263.247 262.827 263.961 261.963 264.477C261.104 264.992 260.163 265.25 259.143 265.25ZM259.158 263.977C260.012 263.977 260.773 263.75 261.439 263.297C262.111 262.839 262.666 262.229 263.104 261.469C263.541 260.703 263.835 259.862 263.986 258.945C264.127 258.07 264.111 257.266 263.939 256.531C263.768 255.797 263.437 255.208 262.947 254.766C262.458 254.323 261.807 254.102 260.994 254.102C260.145 254.102 259.385 254.333 258.713 254.797C258.041 255.255 257.486 255.87 257.049 256.641C256.611 257.406 256.32 258.245 256.174 259.156C256.028 260.036 256.038 260.841 256.205 261.57C256.377 262.299 256.708 262.883 257.197 263.32C257.692 263.758 258.346 263.977 259.158 263.977ZM270.055 257.5L268.813 265H267.422L269.422 253H270.773L270.461 254.883H270.586C270.961 254.268 271.479 253.776 272.141 253.406C272.807 253.031 273.581 252.844 274.461 252.844C275.263 252.844 275.94 253.013 276.492 253.352C277.049 253.685 277.445 254.177 277.68 254.828C277.919 255.479 277.961 256.279 277.805 257.227L276.5 265H275.109L276.391 257.312C276.552 256.333 276.409 255.557 275.961 254.984C275.518 254.406 274.833 254.117 273.906 254.117C273.276 254.117 272.69 254.253 272.148 254.523C271.612 254.794 271.159 255.185 270.789 255.695C270.419 256.201 270.174 256.802 270.055 257.5ZM291.068 265.25C290.016 265.25 289.131 264.984 288.412 264.453C287.693 263.917 287.186 263.174 286.889 262.227C286.592 261.279 286.542 260.185 286.74 258.945C286.938 257.737 287.331 256.674 287.92 255.758C288.514 254.836 289.243 254.12 290.107 253.609C290.972 253.094 291.912 252.836 292.928 252.836C293.985 252.836 294.87 253.104 295.584 253.641C296.303 254.177 296.811 254.919 297.107 255.867C297.41 256.815 297.462 257.911 297.264 259.156C297.066 260.359 296.67 261.419 296.076 262.336C295.482 263.247 294.753 263.961 293.889 264.477C293.029 264.992 292.089 265.25 291.068 265.25ZM291.084 263.977C291.938 263.977 292.699 263.75 293.365 263.297C294.037 262.839 294.592 262.229 295.029 261.469C295.467 260.703 295.761 259.862 295.912 258.945C296.053 258.07 296.037 257.266 295.865 256.531C295.693 255.797 295.363 255.208 294.873 254.766C294.383 254.323 293.732 254.102 292.92 254.102C292.071 254.102 291.311 254.333 290.639 254.797C289.967 255.255 289.412 255.87 288.975 256.641C288.537 257.406 288.245 258.245 288.1 259.156C287.954 260.036 287.964 260.841 288.131 261.57C288.303 262.299 288.633 262.883 289.123 263.32C289.618 263.758 290.271 263.977 291.084 263.977ZM306.285 253L306.082 254.211H300.191L300.387 253H306.285ZM300.23 265L302.52 251.242C302.624 250.596 302.861 250.052 303.23 249.609C303.605 249.167 304.053 248.831 304.574 248.602C305.095 248.372 305.629 248.258 306.176 248.258C306.54 248.258 306.837 248.289 307.066 248.352C307.296 248.409 307.475 248.466 307.605 248.523L307.012 249.742C306.908 249.711 306.783 249.674 306.637 249.633C306.496 249.591 306.311 249.57 306.082 249.57C305.478 249.57 304.983 249.74 304.598 250.078C304.212 250.417 303.965 250.901 303.855 251.531L301.621 265H300.23ZM320.186 253L319.982 254.211H314.092L314.287 253H320.186ZM314.131 265L316.42 251.242C316.524 250.596 316.761 250.052 317.131 249.609C317.506 249.167 317.954 248.831 318.475 248.602C318.995 248.372 319.529 248.258 320.076 248.258C320.441 248.258 320.738 248.289 320.967 248.352C321.196 248.409 321.376 248.466 321.506 248.523L320.912 249.742C320.808 249.711 320.683 249.674 320.537 249.633C320.396 249.591 320.212 249.57 319.982 249.57C319.378 249.57 318.883 249.74 318.498 250.078C318.113 250.417 317.865 250.901 317.756 251.531L315.521 265H314.131ZM329.344 260.414L330.586 253H331.977L329.977 265H328.586L328.914 263.008H328.813C328.438 263.622 327.906 264.135 327.219 264.547C326.536 264.953 325.755 265.156 324.875 265.156C324.109 265.156 323.456 264.99 322.914 264.656C322.378 264.318 321.995 263.823 321.766 263.172C321.536 262.521 321.5 261.721 321.656 260.773L322.961 253H324.352L323.07 260.687C322.919 261.625 323.07 262.38 323.523 262.953C323.982 263.521 324.643 263.805 325.508 263.805C326.049 263.805 326.591 263.674 327.133 263.414C327.68 263.154 328.154 262.773 328.555 262.273C328.961 261.768 329.224 261.148 329.344 260.414ZM336.291 257.5L335.049 265H333.658L335.658 253H337.01L336.697 254.883H336.822C337.197 254.268 337.715 253.776 338.377 253.406C339.044 253.031 339.817 252.844 340.697 252.844C341.499 252.844 342.176 253.013 342.729 253.352C343.286 253.685 343.682 254.177 343.916 254.828C344.156 255.479 344.197 256.279 344.041 257.227L342.736 265H341.346L342.627 257.312C342.788 256.333 342.645 255.557 342.197 254.984C341.755 254.406 341.07 254.117 340.143 254.117C339.512 254.117 338.926 254.253 338.385 254.523C337.848 254.794 337.395 255.185 337.025 255.695C336.656 256.201 336.411 256.802 336.291 257.5ZM350.695 265.25C349.711 265.25 348.891 264.99 348.234 264.469C347.578 263.948 347.12 263.221 346.859 262.289C346.599 261.357 346.57 260.271 346.773 259.031C346.982 257.797 347.37 256.716 347.938 255.789C348.51 254.857 349.211 254.133 350.039 253.617C350.872 253.096 351.781 252.836 352.766 252.836C353.5 252.836 354.086 252.966 354.523 253.227C354.966 253.482 355.302 253.799 355.531 254.18C355.76 254.56 355.924 254.93 356.023 255.289H356.148L357.195 249H358.594L355.938 265H354.586L354.961 262.773H354.789C354.565 263.138 354.271 263.513 353.906 263.898C353.547 264.279 353.104 264.599 352.578 264.859C352.052 265.12 351.424 265.25 350.695 265.25ZM351 263.977C351.776 263.977 352.477 263.766 353.102 263.344C353.732 262.917 354.258 262.331 354.68 261.586C355.107 260.836 355.398 259.977 355.555 259.008C355.716 258.049 355.714 257.203 355.547 256.469C355.38 255.729 355.057 255.151 354.578 254.734C354.099 254.312 353.466 254.102 352.68 254.102C351.883 254.102 351.174 254.32 350.555 254.758C349.935 255.19 349.422 255.776 349.016 256.516C348.615 257.255 348.336 258.086 348.18 259.008C348.029 259.94 348.029 260.781 348.18 261.531C348.331 262.281 348.638 262.878 349.102 263.32C349.57 263.758 350.203 263.977 351 263.977ZM369.516 255.633L368.18 255.977C368.112 255.617 367.987 255.294 367.805 255.008C367.628 254.716 367.37 254.487 367.031 254.32C366.698 254.148 366.26 254.062 365.719 254.062C364.906 254.062 364.206 254.26 363.617 254.656C363.029 255.047 362.685 255.547 362.586 256.156C362.503 256.667 362.609 257.081 362.906 257.398C363.208 257.716 363.714 257.966 364.422 258.148L366.172 258.594C367.141 258.844 367.831 259.234 368.242 259.766C368.659 260.297 368.802 260.969 368.672 261.781C368.557 262.458 368.268 263.057 367.805 263.578C367.346 264.099 366.758 264.508 366.039 264.805C365.326 265.102 364.529 265.25 363.648 265.25C362.466 265.25 361.536 264.984 360.859 264.453C360.188 263.922 359.828 263.156 359.781 262.156L361.18 261.844C361.221 262.552 361.464 263.089 361.906 263.453C362.354 263.818 362.984 264 363.797 264C364.724 264 365.503 263.789 366.133 263.367C366.763 262.945 367.125 262.424 367.219 261.805C367.307 261.315 367.216 260.909 366.945 260.586C366.68 260.263 366.227 260.023 365.586 259.867L363.719 259.398C362.714 259.143 362.003 258.745 361.586 258.203C361.174 257.656 361.036 256.982 361.172 256.18C361.281 255.518 361.557 254.937 362 254.437C362.443 253.937 363.003 253.547 363.68 253.266C364.357 252.979 365.096 252.836 365.898 252.836C367.003 252.836 367.844 253.086 368.422 253.586C369 254.081 369.365 254.763 369.516 255.633ZM382.178 265.25C381.058 265.25 380.133 264.99 379.404 264.469C378.675 263.943 378.165 263.216 377.873 262.289C377.581 261.357 377.537 260.284 377.74 259.07C377.943 257.862 378.344 256.789 378.943 255.852C379.542 254.909 380.282 254.172 381.162 253.641C382.042 253.104 382.998 252.836 384.029 252.836C384.68 252.836 385.29 252.956 385.857 253.195C386.425 253.43 386.907 253.792 387.303 254.281C387.704 254.766 387.982 255.378 388.139 256.117C388.295 256.852 388.29 257.721 388.123 258.727L388.014 259.414H378.639L378.834 258.187H386.795C386.925 257.417 386.889 256.724 386.686 256.109C386.482 255.495 386.136 255.008 385.646 254.648C385.162 254.284 384.561 254.102 383.842 254.102C383.107 254.102 382.412 254.307 381.756 254.719C381.105 255.13 380.553 255.667 380.1 256.328C379.652 256.984 379.363 257.685 379.232 258.43L379.076 259.352C378.91 260.367 378.93 261.219 379.139 261.906C379.347 262.589 379.725 263.104 380.271 263.453C380.818 263.802 381.519 263.977 382.373 263.977C382.946 263.977 383.464 263.888 383.928 263.711C384.391 263.534 384.795 263.297 385.139 263C385.482 262.698 385.758 262.367 385.967 262.008L387.209 262.437C386.943 262.943 386.568 263.409 386.084 263.836C385.605 264.263 385.035 264.607 384.373 264.867C383.717 265.122 382.985 265.25 382.178 265.25ZM401.064 253L394.682 265H393.197L390.814 253H392.26L394.135 263.164H394.236L399.494 253H401.064ZM406.176 265.25C405.056 265.25 404.132 264.99 403.402 264.469C402.673 263.943 402.163 263.216 401.871 262.289C401.579 261.357 401.535 260.284 401.738 259.07C401.941 257.862 402.342 256.789 402.941 255.852C403.54 254.909 404.28 254.172 405.16 253.641C406.04 253.104 406.996 252.836 408.027 252.836C408.678 252.836 409.288 252.956 409.855 253.195C410.423 253.43 410.905 253.792 411.301 254.281C411.702 254.766 411.98 255.378 412.137 256.117C412.293 256.852 412.288 257.721 412.121 258.727L412.012 259.414H402.637L402.832 258.187H410.793C410.923 257.417 410.887 256.724 410.684 256.109C410.48 255.495 410.134 255.008 409.645 254.648C409.16 254.284 408.559 254.102 407.84 254.102C407.105 254.102 406.41 254.307 405.754 254.719C405.103 255.13 404.551 255.667 404.098 256.328C403.65 256.984 403.361 257.685 403.23 258.43L403.074 259.352C402.908 260.367 402.928 261.219 403.137 261.906C403.345 262.589 403.723 263.104 404.27 263.453C404.816 263.802 405.517 263.977 406.371 263.977C406.944 263.977 407.462 263.888 407.926 263.711C408.389 263.534 408.793 263.297 409.137 263C409.48 262.698 409.757 262.367 409.965 262.008L411.207 262.437C410.941 262.943 410.566 263.409 410.082 263.836C409.603 264.263 409.033 264.607 408.371 264.867C407.715 265.122 406.983 265.25 406.176 265.25ZM414.139 265L416.139 253H417.49L417.178 254.844H417.279C417.613 254.24 418.11 253.753 418.771 253.383C419.438 253.008 420.149 252.82 420.904 252.82C421.019 252.82 421.146 252.823 421.287 252.828C421.428 252.828 421.545 252.833 421.639 252.844L421.396 254.258C421.334 254.247 421.225 254.232 421.068 254.211C420.917 254.19 420.748 254.18 420.561 254.18C419.936 254.18 419.357 254.312 418.826 254.578C418.3 254.839 417.857 255.201 417.498 255.664C417.144 256.128 416.915 256.656 416.811 257.25L415.529 265H414.139ZM422.602 269.5C422.326 269.5 422.07 269.474 421.836 269.422C421.607 269.37 421.427 269.313 421.297 269.25L421.883 268.023C422.32 268.174 422.721 268.221 423.086 268.164C423.456 268.112 423.807 267.935 424.141 267.633C424.474 267.331 424.802 266.88 425.125 266.281L425.781 265.063L423.406 253H424.852L426.727 263.187H426.828L432.086 253H433.656L426.273 266.883C425.956 267.482 425.604 267.974 425.219 268.359C424.839 268.745 424.427 269.031 423.984 269.219C423.547 269.406 423.086 269.5 422.602 269.5ZM440.564 265L442.564 253H443.916L443.604 254.844H443.729C444.077 254.224 444.562 253.737 445.182 253.383C445.801 253.023 446.505 252.844 447.291 252.844C448.114 252.844 448.76 253.039 449.229 253.43C449.697 253.815 450.01 254.346 450.166 255.023H450.268C450.643 254.357 451.171 253.828 451.854 253.437C452.536 253.042 453.314 252.844 454.189 252.844C455.299 252.844 456.119 253.195 456.65 253.898C457.182 254.602 457.335 255.622 457.111 256.961L455.768 265H454.377L455.721 256.961C455.872 256.013 455.749 255.302 455.354 254.828C454.958 254.354 454.364 254.117 453.572 254.117C452.656 254.117 451.898 254.398 451.299 254.961C450.705 255.518 450.338 256.232 450.197 257.102L448.877 265H447.455L448.822 256.836C448.952 256.023 448.835 255.367 448.471 254.867C448.111 254.367 447.52 254.117 446.697 254.117C446.14 254.117 445.617 254.255 445.127 254.531C444.643 254.802 444.231 255.18 443.893 255.664C443.559 256.143 443.34 256.693 443.236 257.312L441.955 265H440.564ZM464.168 265.25C463.116 265.25 462.23 264.984 461.512 264.453C460.793 263.917 460.285 263.174 459.988 262.227C459.691 261.279 459.642 260.185 459.84 258.945C460.038 257.737 460.431 256.674 461.02 255.758C461.613 254.836 462.342 254.12 463.207 253.609C464.072 253.094 465.012 252.836 466.027 252.836C467.085 252.836 467.97 253.104 468.684 253.641C469.402 254.177 469.91 254.919 470.207 255.867C470.509 256.815 470.561 257.911 470.363 259.156C470.165 260.359 469.77 261.419 469.176 262.336C468.582 263.247 467.853 263.961 466.988 264.477C466.129 264.992 465.189 265.25 464.168 265.25ZM464.184 263.977C465.038 263.977 465.798 263.75 466.465 263.297C467.137 262.839 467.691 262.229 468.129 261.469C468.566 260.703 468.861 259.862 469.012 258.945C469.152 258.07 469.137 257.266 468.965 256.531C468.793 255.797 468.462 255.208 467.973 254.766C467.483 254.323 466.832 254.102 466.02 254.102C465.171 254.102 464.41 254.333 463.738 254.797C463.066 255.255 462.512 255.87 462.074 256.641C461.637 257.406 461.345 258.245 461.199 259.156C461.053 260.036 461.064 260.841 461.23 261.57C461.402 262.299 461.733 262.883 462.223 263.32C462.717 263.758 463.371 263.977 464.184 263.977ZM475.08 257.5L473.838 265H472.447L474.447 253H475.799L475.486 254.883H475.611C475.986 254.268 476.505 253.776 477.166 253.406C477.833 253.031 478.606 252.844 479.486 252.844C480.288 252.844 480.965 253.013 481.518 253.352C482.075 253.685 482.471 254.177 482.705 254.828C482.945 255.479 482.986 256.279 482.83 257.227L481.525 265H480.135L481.416 257.312C481.577 256.333 481.434 255.557 480.986 254.984C480.544 254.406 479.859 254.117 478.932 254.117C478.301 254.117 477.715 254.253 477.174 254.523C476.637 254.794 476.184 255.185 475.814 255.695C475.445 256.201 475.2 256.802 475.08 257.5ZM491.914 253L491.719 254.211H485.984L486.188 253H491.914ZM488.445 250.125H489.844L487.891 261.867C487.807 262.367 487.828 262.76 487.953 263.047C488.078 263.328 488.271 263.529 488.531 263.648C488.792 263.763 489.078 263.82 489.391 263.82C489.573 263.82 489.729 263.81 489.859 263.789C489.995 263.763 490.115 263.737 490.219 263.711L490.32 264.969C490.169 265.021 489.99 265.068 489.781 265.109C489.573 265.156 489.323 265.18 489.031 265.18C488.521 265.18 488.049 265.068 487.617 264.844C487.185 264.62 486.857 264.286 486.633 263.844C486.409 263.401 486.349 262.852 486.453 262.195L488.445 250.125ZM495.963 257.5L494.721 265H493.33L495.986 249H497.377L496.408 254.883H496.533C496.908 254.258 497.424 253.763 498.08 253.398C498.736 253.029 499.52 252.844 500.432 252.844C501.239 252.844 501.921 253.01 502.479 253.344C503.041 253.677 503.439 254.169 503.674 254.82C503.913 255.471 503.955 256.273 503.799 257.227L502.494 265H501.096L502.377 257.312C502.538 256.323 502.393 255.544 501.939 254.977C501.492 254.404 500.804 254.117 499.877 254.117C499.242 254.117 498.648 254.253 498.096 254.523C497.549 254.794 497.085 255.185 496.705 255.695C496.33 256.201 496.083 256.802 495.963 257.5ZM507.422 265.117C507.109 265.117 506.846 265.008 506.633 264.789C506.424 264.57 506.32 264.305 506.32 263.992C506.32 263.68 506.435 263.417 506.664 263.203C506.893 262.99 507.161 262.883 507.469 262.883C507.776 262.883 508.039 262.992 508.258 263.211C508.477 263.43 508.581 263.69 508.57 263.992C508.565 264.201 508.508 264.391 508.398 264.563C508.294 264.729 508.156 264.865 507.984 264.969C507.818 265.068 507.63 265.117 507.422 265.117Z" fill="black"/>
<path d="M400.095 112.712C400.488 112.324 400.492 111.69 400.104 111.297L393.781 104.893C393.393 104.5 392.76 104.496 392.367 104.884C391.974 105.272 391.97 105.905 392.358 106.298L397.978 111.991L392.285 117.611C391.892 117.999 391.888 118.633 392.276 119.026C392.664 119.419 393.297 119.423 393.691 119.035L400.095 112.712ZM243.386 112L399.386 113L399.399 111L243.399 110L243.386 112Z" fill="black"/>
<defs>
<filter id="filter0_d_249_330" x="413.5" y="13.5" width="209.017" height="209.017" filterUnits="userSpaceOnUse" color-interpolation-filters="sRGB">
<feFlood flood-opacity="0" result="BackgroundImageFix"/>
<feColorMatrix in="SourceAlpha" type="matrix" values="0 0 0 0 0 0 0 0 0 0 0 0 0 0 0 0 0 0 127 0" result="hardAlpha"/>
<feOffset dy="4"/>
<feGaussianBlur stdDeviation="2"/>
<feComposite in2="hardAlpha" operator="out"/>
<feColorMatrix type="matrix" values="0 0 0 0 0 0 0 0 0 0 0 0 0 0 0 0 0 0 0.25 0"/>
<feBlend mode="normal" in2="BackgroundImageFix" result="effect1_dropShadow_249_330"/>
<feBlend mode="normal" in="SourceGraphic" in2="effect1_dropShadow_249_330" result="shape"/>
</filter>
<filter id="filter1_d_249_330" x="23.4478" y="13.4478" width="209.014" height="209.028" filterUnits="userSpaceOnUse" color-interpolation-filters="sRGB">
<feFlood flood-opacity="0" result="BackgroundImageFix"/>
<feColorMatrix in="SourceAlpha" type="matrix" values="0 0 0 0 0 0 0 0 0 0 0 0 0 0 0 0 0 0 127 0" result="hardAlpha"/>
<feOffset dy="4"/>
<feGaussianBlur stdDeviation="2"/>
<feComposite in2="hardAlpha" operator="out"/>
<feColorMatrix type="matrix" values="0 0 0 0 0 0 0 0 0 0 0 0 0 0 0 0 0 0 0.25 0"/>
<feBlend mode="normal" in2="BackgroundImageFix" result="effect1_dropShadow_249_330"/>
<feBlend mode="normal" in="SourceGraphic" in2="effect1_dropShadow_249_330" result="shape"/>
</filter>
<linearGradient id="paint0_linear_249_330" x1="561.318" y1="14" x2="561.318" y2="114" gradientUnits="userSpaceOnUse">
<stop stop-color="#FF7676"/>
<stop offset="1" stop-color="#FFCF54"/>
</linearGradient>
<linearGradient id="paint1_linear_249_330" x1="568.017" y1="64" x2="568.017" y2="164" gradientUnits="userSpaceOnUse">
<stop stop-color="#990000"/>
<stop offset="1" stop-color="#CA0000"/>
</linearGradient>
<linearGradient id="paint2_linear_249_330" x1="511.31" y1="14" x2="511.31" y2="214.017" gradientUnits="userSpaceOnUse">
<stop stop-color="#CDFFBB"/>
<stop offset="1" stop-color="#00C2FF"/>
</linearGradient>
<linearGradient id="paint3_linear_249_330" x1="143.072" y1="15.11" x2="112.852" y2="212.814" gradientUnits="userSpaceOnUse">
<stop stop-color="#00C2FF"/>
<stop offset="1" stop-color="#CDFFBB"/>
</linearGradient>
<linearGradient id="paint4_linear_249_330" x1="182.95" y1="85.1269" x2="177.388" y2="121.517" gradientUnits="userSpaceOnUse">
<stop stop-color="#E0B64B"/>
<stop offset="1" stop-color="#FFCF54"/>
</linearGradient>
</defs>
</svg>
