<svg width="50" height="23" viewBox="0 0 50 23" fill="none" xmlns="http://www.w3.org/2000/svg">
<path d="M6.57657 16.8679C5.29527 16.8679 4.19419 16.6477 3.27326 16.2072C2.36235 15.7568 1.66165 15.1111 1.17116 14.2703C0.69068 13.4295 0.450439 12.4184 0.450439 11.2373C0.450439 10.0561 0.685674 9.05008 1.15615 8.21924C1.63663 7.3784 2.32231 6.73275 3.2132 6.2823C4.1041 5.83185 5.17017 5.60663 6.4114 5.60663C7.10209 5.60663 7.74272 5.67669 8.33332 5.81684C8.93392 5.95699 9.47446 6.1672 9.95494 6.44747L9.32431 8.84987C8.95395 8.61963 8.49849 8.43447 7.95795 8.29432C7.42741 8.15417 6.91191 8.08411 6.4114 8.08411C5.8008 8.08411 5.28527 8.20423 4.86485 8.44447C4.45443 8.68471 4.13912 9.04005 3.91891 9.51053C3.7087 9.97098 3.60359 10.5466 3.60359 11.2373C3.60359 11.938 3.71371 12.5235 3.93392 12.994C4.15413 13.4545 4.48446 13.8048 4.92491 14.0451C5.36536 14.2753 5.91591 14.3904 6.57657 14.3904C6.86687 14.3904 7.11711 14.3654 7.32732 14.3153C7.54753 14.2653 7.77275 14.1802 8.00299 14.0601L7.65765 14.7508V12.4985H5.25524V10.021H10.6606V15.967C10.1101 16.2573 9.47948 16.4825 8.76876 16.6427C8.05804 16.7928 7.32732 16.8679 6.57657 16.8679Z" fill="url(#paint0_linear_69_397)"/>
<path d="M6 19.8649V10H8.67568C10.0811 10 11.1036 10.2207 11.7432 10.6622C12.3829 11.1036 12.7027 11.8108 12.7027 12.7838C12.7027 13.7477 12.3874 14.455 11.7568 14.9054C11.1261 15.3559 10.1306 15.5811 8.77027 15.5811H6.33784V14.9595H8.68919C9.87838 14.9595 10.7297 14.7928 11.2432 14.4595C11.7658 14.1171 12.027 13.5631 12.027 12.7973C12.027 12.0315 11.7658 11.4775 11.2432 11.1351C10.7297 10.7928 9.87838 10.6216 8.68919 10.6216H6.66216V19.8649H6ZM12.2297 19.8649L6.7973 15.2973H7.7027L13.1622 19.8649H12.2297Z" fill="black"/>
<path d="M21.36 18.15C20.22 18.15 19.23 17.92 18.39 17.46C17.56 17 16.915 16.35 16.455 15.51C15.995 14.66 15.765 13.665 15.765 12.525C15.765 11.385 15.995 10.395 16.455 9.555C16.915 8.705 17.56 8.05 18.39 7.59C19.23 7.13 20.22 6.9 21.36 6.9C22.67 6.9 23.84 7.215 24.87 7.845L24.615 8.505C23.635 7.895 22.555 7.59 21.375 7.59C20.395 7.59 19.54 7.795 18.81 8.205C18.08 8.605 17.515 9.175 17.115 9.915C16.725 10.645 16.53 11.515 16.53 12.525C16.53 13.525 16.725 14.395 17.115 15.135C17.515 15.875 18.08 16.45 18.81 16.86C19.54 17.26 20.395 17.46 21.375 17.46C22.545 17.46 23.625 17.155 24.615 16.545L24.87 17.205C23.84 17.835 22.67 18.15 21.36 18.15ZM27.1613 18V7.05H27.8963V11.385H27.9263C28.2063 10.965 28.6063 10.64 29.1263 10.41C29.6463 10.17 30.2313 10.05 30.8813 10.05C31.8213 10.05 32.5113 10.31 32.9513 10.83C33.3913 11.34 33.6113 12.13 33.6113 13.2V18H32.8763V13.305C32.8763 12.415 32.7013 11.76 32.3513 11.34C32.0013 10.91 31.4613 10.695 30.7313 10.695C30.1813 10.695 29.6913 10.805 29.2613 11.025C28.8313 11.245 28.4963 11.55 28.2563 11.94C28.0163 12.32 27.8963 12.76 27.8963 13.26V18H27.1613ZM37.8668 18.15C37.0768 18.15 36.4468 17.94 35.9768 17.52C35.5068 17.1 35.2718 16.53 35.2718 15.81C35.2718 14.92 35.6418 14.24 36.3818 13.77C37.1318 13.3 38.2018 13.065 39.5918 13.065H40.9268C40.9268 12.455 40.8618 11.98 40.7318 11.64C40.6018 11.3 40.3768 11.06 40.0568 10.92C39.7368 10.77 39.2968 10.695 38.7368 10.695C38.2268 10.695 37.7218 10.75 37.2218 10.86C36.7218 10.96 36.2418 11.11 35.7818 11.31L35.5718 10.725C36.0618 10.505 36.5818 10.34 37.1318 10.23C37.6818 10.11 38.2418 10.05 38.8118 10.05C39.5218 10.05 40.0868 10.15 40.5068 10.35C40.9268 10.54 41.2268 10.86 41.4068 11.31C41.5868 11.75 41.6768 12.35 41.6768 13.11V18H40.9568V16.77H40.9268C40.6668 17.17 40.2518 17.5 39.6818 17.76C39.1118 18.02 38.5068 18.15 37.8668 18.15ZM38.0618 17.52C38.6018 17.52 39.0868 17.415 39.5168 17.205C39.9468 16.995 40.2868 16.71 40.5368 16.35C40.7968 15.99 40.9268 15.595 40.9268 15.165V13.665H39.6668C38.4568 13.665 37.5418 13.845 36.9218 14.205C36.3118 14.565 36.0068 15.085 36.0068 15.765C36.0068 16.305 36.1868 16.735 36.5468 17.055C36.9068 17.365 37.4118 17.52 38.0618 17.52ZM47.134 18.15C46.314 18.15 45.729 17.975 45.379 17.625C45.029 17.265 44.854 16.675 44.854 15.855V10.845H42.844V10.2H44.854V7.65H45.604V10.2H48.664V10.845H45.604V15.705C45.604 16.365 45.724 16.825 45.964 17.085C46.204 17.345 46.629 17.475 47.239 17.475C47.479 17.475 47.709 17.46 47.929 17.43C48.159 17.39 48.379 17.335 48.589 17.265L48.694 17.91C48.424 18 48.159 18.06 47.899 18.09C47.649 18.13 47.394 18.15 47.134 18.15Z" fill="white"/>
<defs>
<linearGradient id="paint0_linear_69_397" x1="-1.09763e-05" y1="11.3123" x2="60.3603" y2="11.3123" gradientUnits="userSpaceOnUse">
<stop stop-color="#42924A"/>
<stop offset="1" stop-color="#BBE7FF"/>
</linearGradient>
</defs>
</svg>
