<svg width="333" height="75" viewBox="0 0 333 75" fill="none" xmlns="http://www.w3.org/2000/svg">
<path d="M21.9 59.5C17.6333 59.5 13.9667 58.7667 10.9 57.3C7.86667 55.8 5.53333 53.65 3.9 50.85C2.3 48.05 1.5 44.6833 1.5 40.75C1.5 36.8167 2.28333 33.4667 3.85 30.7C5.45 27.9 7.73333 25.75 10.7 24.25C13.6667 22.75 17.2167 22 21.35 22C23.65 22 25.7833 22.2333 27.75 22.7C29.75 23.1667 31.55 23.8667 33.15 24.8L31.05 32.8C29.8167 32.0333 28.3 31.4167 26.5 30.95C24.7333 30.4833 23.0167 30.25 21.35 30.25C19.3167 30.25 17.6 30.65 16.2 31.45C14.8333 32.25 13.7833 33.4333 13.05 35C12.35 36.5333 12 38.45 12 40.75C12 43.0833 12.3667 45.0333 13.1 46.6C13.8333 48.1333 14.9333 49.3 16.4 50.1C17.8667 50.8667 19.7 51.25 21.9 51.25C22.8667 51.25 23.7 51.1667 24.4 51C25.1333 50.8333 25.8833 50.55 26.65 50.15L25.5 52.45V44.95H17.5V36.7H35.5V56.5C33.6667 57.4667 31.5667 58.2167 29.2 58.75C26.8333 59.25 24.4 59.5 21.9 59.5ZM40.7371 59V33H50.1371L50.2371 37.5H50.3371C51.3371 36.4 52.4038 35.4833 53.5371 34.75C54.7038 33.9833 55.9371 33.4167 57.2371 33.05C58.5371 32.6833 59.8704 32.5 61.2371 32.5V40.5C59.3038 40.5 57.5204 40.8333 55.8871 41.5C54.2871 42.1667 53.0038 43.0667 52.0371 44.2C51.1038 45.3333 50.6371 46.6 50.6371 48V59H40.7371ZM77.934 59.5C72.934 59.5 69.1007 58.3333 66.434 56C63.7673 53.6667 62.434 50.3333 62.434 46C62.434 41.8 63.634 38.5 66.034 36.1C68.434 33.7 71.734 32.5 75.934 32.5C80.034 32.5 83.2173 33.65 85.484 35.95C87.784 38.2167 88.934 41.4 88.934 45.5C88.934 46.1 88.9173 46.7667 88.884 47.5C88.8507 48.2333 88.8007 48.7333 88.734 49H67.934V43.25H80.984L79.834 45C79.834 42.8333 79.5173 41.25 78.884 40.25C78.284 39.25 77.3007 38.75 75.934 38.75C74.6007 38.75 73.6173 39.25 72.984 40.25C72.3507 41.25 72.034 42.8333 72.034 45V48C72.034 49.6 72.4673 50.75 73.334 51.45C74.2007 52.15 75.6007 52.5 77.534 52.5C78.9673 52.5 80.5173 52.3667 82.184 52.1C83.8507 51.8333 85.2673 51.5 86.434 51.1L87.434 58.1C86.2673 58.5333 84.8173 58.8667 83.084 59.1C81.384 59.3667 79.6673 59.5 77.934 59.5ZM107.329 59.5C102.329 59.5 98.4952 58.3333 95.8285 56C93.1618 53.6667 91.8285 50.3333 91.8285 46C91.8285 41.8 93.0285 38.5 95.4285 36.1C97.8285 33.7 101.129 32.5 105.329 32.5C109.429 32.5 112.612 33.65 114.879 35.95C117.179 38.2167 118.329 41.4 118.329 45.5C118.329 46.1 118.312 46.7667 118.279 47.5C118.245 48.2333 118.195 48.7333 118.129 49H97.3285V43.25H110.379L109.229 45C109.229 42.8333 108.912 41.25 108.279 40.25C107.679 39.25 106.695 38.75 105.329 38.75C103.995 38.75 103.012 39.25 102.379 40.25C101.745 41.25 101.429 42.8333 101.429 45V48C101.429 49.6 101.862 50.75 102.729 51.45C103.595 52.15 104.995 52.5 106.929 52.5C108.362 52.5 109.912 52.3667 111.579 52.1C113.245 51.8333 114.662 51.5 115.829 51.1L116.829 58.1C115.662 58.5333 114.212 58.8667 112.479 59.1C110.779 59.3667 109.062 59.5 107.329 59.5ZM122.329 59V33H131.629L131.729 36H131.829C132.996 34.7667 134.229 33.8833 135.529 33.35C136.829 32.7833 138.346 32.5 140.079 32.5C143.112 32.5 145.329 33.3333 146.729 35C148.129 36.6667 148.829 39.3333 148.829 43V59H139.029V45C139.029 43.3667 138.796 42.2167 138.329 41.55C137.896 40.85 137.146 40.5 136.079 40.5C135.312 40.5 134.629 40.65 134.029 40.95C133.429 41.25 132.962 41.6667 132.629 42.2C132.296 42.7 132.129 43.3 132.129 44V59H122.329Z" fill="url(#paint0_linear_25_68)"/>
<path d="M155.59 59V26.15H164.5C169.18 26.15 172.585 26.885 174.715 28.355C176.845 29.825 177.91 32.18 177.91 35.42C177.91 38.63 176.86 40.985 174.76 42.485C172.66 43.985 169.345 44.735 164.815 44.735H156.715V42.665H164.545C168.505 42.665 171.34 42.11 173.05 41C174.79 39.86 175.66 38.015 175.66 35.465C175.66 32.915 174.79 31.07 173.05 29.93C171.34 28.79 168.505 28.22 164.545 28.22H157.795V59H155.59ZM176.335 59L158.245 43.79H161.26L179.44 59H176.335ZM192.178 59.45C188.698 59.45 185.968 58.385 183.988 56.255C182.038 54.095 181.063 51.11 181.063 47.3C181.063 43.49 182.038 40.52 183.988 38.39C185.968 36.23 188.698 35.15 192.178 35.15C195.658 35.15 198.373 36.23 200.323 38.39C202.303 40.52 203.293 43.49 203.293 47.3C203.293 51.11 202.303 54.095 200.323 56.255C198.373 58.385 195.658 59.45 192.178 59.45ZM192.178 57.515C194.998 57.515 197.188 56.63 198.748 54.86C200.308 53.06 201.088 50.54 201.088 47.3C201.088 44.06 200.308 41.555 198.748 39.785C197.188 37.985 194.998 37.085 192.178 37.085C189.388 37.085 187.198 37.985 185.608 39.785C184.048 41.555 183.268 44.06 183.268 47.3C183.268 50.54 184.048 53.06 185.608 54.86C187.198 56.63 189.388 57.515 192.178 57.515ZM216.436 59.45C213.706 59.45 211.696 58.685 210.406 57.155C209.116 55.595 208.471 53.21 208.471 50V35.6H210.676V49.685C210.676 52.355 211.186 54.335 212.206 55.625C213.226 56.885 214.786 57.515 216.886 57.515C218.506 57.515 219.931 57.185 221.161 56.525C222.421 55.865 223.396 54.965 224.086 53.825C224.806 52.655 225.166 51.32 225.166 49.82V35.6H227.371V59H225.166V55.445H225.076C224.236 56.705 223.066 57.695 221.566 58.415C220.066 59.105 218.356 59.45 216.436 59.45ZM236.053 59V26.15H238.303V59H236.053ZM256.706 59.45C252.926 59.45 250.016 58.4 247.976 56.3C245.936 54.2 244.916 51.2 244.916 47.3C244.916 43.52 245.876 40.55 247.796 38.39C249.746 36.23 252.401 35.15 255.761 35.15C259.001 35.15 261.476 36.17 263.186 38.21C264.926 40.22 265.796 43.13 265.796 46.94C265.796 47.15 265.781 47.345 265.751 47.525C265.751 47.705 265.751 47.87 265.751 48.02H246.131V46.175H264.221L263.681 46.85C263.681 43.61 263.006 41.165 261.656 39.515C260.336 37.865 258.371 37.04 255.761 37.04C253.031 37.04 250.901 37.925 249.371 39.695C247.871 41.435 247.121 43.925 247.121 47.165V47.615C247.121 50.855 247.931 53.315 249.551 54.995C251.171 56.675 253.541 57.515 256.661 57.515C257.981 57.515 259.301 57.38 260.621 57.11C261.971 56.81 263.201 56.405 264.311 55.895L264.806 57.74C263.636 58.28 262.346 58.7 260.936 59C259.556 59.3 258.146 59.45 256.706 59.45ZM280.669 59.45C278.209 59.45 276.454 58.925 275.404 57.875C274.354 56.795 273.829 55.025 273.829 52.565V37.535H267.799V35.6H273.829V27.95H276.079V35.6H285.259V37.535H276.079V52.115C276.079 54.095 276.439 55.475 277.159 56.255C277.879 57.035 279.154 57.425 280.984 57.425C281.704 57.425 282.394 57.38 283.054 57.29C283.744 57.17 284.404 57.005 285.034 56.795L285.349 58.73C284.539 59 283.744 59.18 282.964 59.27C282.214 59.39 281.449 59.45 280.669 59.45ZM301.147 59.45C298.687 59.45 296.932 58.925 295.882 57.875C294.832 56.795 294.307 55.025 294.307 52.565V37.535H288.277V35.6H294.307V27.95H296.557V35.6H305.737V37.535H296.557V52.115C296.557 54.095 296.917 55.475 297.637 56.255C298.357 57.035 299.632 57.425 301.462 57.425C302.182 57.425 302.872 57.38 303.532 57.29C304.222 57.17 304.882 57.005 305.512 56.795L305.827 58.73C305.017 59 304.222 59.18 303.442 59.27C302.692 59.39 301.927 59.45 301.147 59.45ZM321.042 59.45C317.262 59.45 314.352 58.4 312.312 56.3C310.272 54.2 309.252 51.2 309.252 47.3C309.252 43.52 310.212 40.55 312.132 38.39C314.082 36.23 316.737 35.15 320.097 35.15C323.337 35.15 325.812 36.17 327.522 38.21C329.262 40.22 330.132 43.13 330.132 46.94C330.132 47.15 330.117 47.345 330.087 47.525C330.087 47.705 330.087 47.87 330.087 48.02H310.467V46.175H328.557L328.017 46.85C328.017 43.61 327.342 41.165 325.992 39.515C324.672 37.865 322.707 37.04 320.097 37.04C317.367 37.04 315.237 37.925 313.707 39.695C312.207 41.435 311.457 43.925 311.457 47.165V47.615C311.457 50.855 312.267 53.315 313.887 54.995C315.507 56.675 317.877 57.515 320.997 57.515C322.317 57.515 323.637 57.38 324.957 57.11C326.307 56.81 327.537 56.405 328.647 55.895L329.142 57.74C327.972 58.28 326.682 58.7 325.272 59C323.892 59.3 322.482 59.45 321.042 59.45Z" fill="black"/>
<circle cx="192.5" cy="47.5" r="12.5" fill="url(#paint1_linear_25_68)"/>
<path d="M189.982 36.5909L190.714 38.0909" stroke="black" stroke-width="0.5"/>
<path d="M190.714 38.0909L189.799 37.7727V37.0455L189.524 37.7727L188.059 38.0909L188.654 39.0909L189.524 38.8636L189.799 38.0909L190.531 38.6364H191.493L191.722 39.5L192.454 40.3182V40.8636H191.722L191.172 40.3182H190.714L191.493 41.1364H190.211L189.799 41.8182L188.929 42.0455L188.654 42.9091L187.509 43.7727L187.143 44.9091L186.41 43.7727H185.22L184.396 44.4091V45.9091L186.044 45.5455L185.678 46.8182L186.777 47.1818L186.41 47.8182L186.777 48.5L187.784 48.6818L188.654 48.0909L189.799 48.5L190.714 48.6818L191.722 49.4546L192.729 49.7727L193.553 51L195.888 51.3182L196.758 52L196.117 53.5L195.476 55.1364L193.782 55.8636L193.324 57L191.493 58.1818L190.714 59.3636L189.982 59L189.524 57.6818L188.929 54.5455L186.777 53.1364L186.41 51.7273L187.143 50.3636V49.1818L186.044 48.6818L185.678 47.8182L184.899 47.1818L184.396 46.5909H183.846L183.526 46.1818L183.022 45.5455V44.4091L183.526 40.0455L184.899 39.0909L185.22 37.7727L186.044 37.3636L186.777 36.4091L187.509 35.9091H188.059L188.745 36.8636L189.982 36.6364M196.987 35.9091V36.6364L197.674 37.5909L196.987 38.0909L197.674 39.0909H198.59L198.086 38.0909H198.59L198.819 37.0455L199.643 38.0909L198.819 39.0909V39.5L199.368 39.7727L199.963 40.3182L199.093 40.8636L199.643 41.8182L200.559 40.3182H201.337L201.658 39.0909L202.07 40.0455L202.848 40.3182L203.123 41.4091H201.337L199.643 43.7727L199.368 46.5909L200.559 48.6818L202.39 48.5L203.397 48.0909L204.222 47.8182L203.764 48.6818L204.222 49.7727L204.451 50.3636" stroke="#002D04" stroke-width="0.5"/>
<defs>
<linearGradient id="paint0_linear_25_68" x1="8.17449e-08" y1="41" x2="201" y2="41" gradientUnits="userSpaceOnUse">
<stop stop-color="#42924A"/>
<stop offset="1" stop-color="#BBE7FF"/>
</linearGradient>
<linearGradient id="paint1_linear_25_68" x1="192.5" y1="35" x2="192.5" y2="60" gradientUnits="userSpaceOnUse">
<stop stop-color="#CDFFBB"/>
<stop offset="1" stop-color="#00C2FF"/>
</linearGradient>
</defs>
</svg>
