<svg width="26" height="20" viewBox="0 0 26 20" fill="none" xmlns="http://www.w3.org/2000/svg">
<path d="M3.625 3.17725C3.19531 3.17725 2.84375 3.52881 2.84375 3.9585V5.0376L11.2666 11.9517C12.2773 12.7817 13.7275 12.7817 14.7383 11.9517L23.1562 5.0376V3.9585C23.1562 3.52881 22.8047 3.17725 22.375 3.17725H3.625ZM2.84375 8.06982V16.4585C2.84375 16.8882 3.19531 17.2397 3.625 17.2397H22.375C22.8047 17.2397 23.1562 16.8882 23.1562 16.4585V8.06982L16.2227 13.7632C14.3477 15.3013 11.6475 15.3013 9.77734 13.7632L2.84375 8.06982ZM0.5 3.9585C0.5 2.23486 1.90137 0.833496 3.625 0.833496H22.375C24.0986 0.833496 25.5 2.23486 25.5 3.9585V16.4585C25.5 18.1821 24.0986 19.5835 22.375 19.5835H3.625C1.90137 19.5835 0.5 18.1821 0.5 16.4585V3.9585Z" fill="black"/>
</svg>
