<svg width="35" height="35" viewBox="0 0 35 35" fill="none" xmlns="http://www.w3.org/2000/svg">
<circle cx="17.5" cy="17.5" r="17" fill="url(#paint0_linear_156_3)" stroke="#7D6629"/>
<g filter="url(#filter0_d_156_3)">
<mask id="path-2-outside-1_156_3" maskUnits="userSpaceOnUse" x="9" y="8" width="17" height="20" fill="black">
<rect fill="white" x="9" y="8" width="17" height="20"/>
<path d="M17.2564 27.2486C15.8714 27.2486 14.6433 27.0118 13.5721 26.5384C12.5067 26.0589 11.6663 25.399 11.0508 24.5586C10.4353 23.7182 10.1216 22.7505 10.1097 21.6555H14.5309C14.5487 22.0521 14.6759 22.4042 14.9126 22.712C15.1494 23.0138 15.4719 23.2506 15.8803 23.4222C16.2887 23.5939 16.7533 23.6797 17.2741 23.6797C17.795 23.6797 18.2537 23.5879 18.6502 23.4045C19.0527 23.2151 19.3664 22.9576 19.5913 22.6321C19.8162 22.3007 19.9257 21.9219 19.9197 21.4957C19.9257 21.0696 19.8043 20.6908 19.5558 20.3594C19.3072 20.0279 18.955 19.7705 18.4993 19.587C18.0495 19.4035 17.5168 19.3118 16.9013 19.3118H15.1346V16.1868H16.9013C17.4399 16.1868 17.9134 16.098 18.3217 15.9205C18.736 15.7429 19.0586 15.4943 19.2894 15.1747C19.5202 14.8492 19.6327 14.4763 19.6268 14.0561C19.6327 13.6477 19.535 13.2897 19.3338 12.9819C19.1385 12.6682 18.8633 12.4255 18.5082 12.2539C18.159 12.0823 17.7536 11.9964 17.2919 11.9964C16.8066 11.9964 16.3656 12.0823 15.9691 12.2539C15.5785 12.4255 15.2678 12.6682 15.0369 12.9819C14.8061 13.2956 14.6848 13.6596 14.6729 14.0739H10.4737C10.4856 12.9908 10.7874 12.0379 11.3793 11.2152C11.9711 10.3866 12.776 9.73852 13.794 9.27095C14.8179 8.80338 15.9839 8.5696 17.2919 8.5696C18.594 8.5696 19.7392 8.79747 20.7276 9.2532C21.716 9.70892 22.4854 10.3304 23.0359 11.1175C23.5863 11.8988 23.8615 12.7836 23.8615 13.772C23.8674 14.7959 23.533 15.6393 22.8583 16.3022C22.1895 16.9651 21.3284 17.3735 20.2749 17.5273V17.6694C21.6835 17.8351 22.7459 18.2908 23.462 19.0366C24.1841 19.7823 24.5421 20.7145 24.5362 21.8331C24.5362 22.8866 24.2255 23.8217 23.604 24.6385C22.9885 25.4493 22.1303 26.0885 21.0295 26.5561C19.9345 27.0178 18.6768 27.2486 17.2564 27.2486Z"/>
</mask>
<path d="M17.2564 27.2486C15.8714 27.2486 14.6433 27.0118 13.5721 26.5384C12.5067 26.0589 11.6663 25.399 11.0508 24.5586C10.4353 23.7182 10.1216 22.7505 10.1097 21.6555H14.5309C14.5487 22.0521 14.6759 22.4042 14.9126 22.712C15.1494 23.0138 15.4719 23.2506 15.8803 23.4222C16.2887 23.5939 16.7533 23.6797 17.2741 23.6797C17.795 23.6797 18.2537 23.5879 18.6502 23.4045C19.0527 23.2151 19.3664 22.9576 19.5913 22.6321C19.8162 22.3007 19.9257 21.9219 19.9197 21.4957C19.9257 21.0696 19.8043 20.6908 19.5558 20.3594C19.3072 20.0279 18.955 19.7705 18.4993 19.587C18.0495 19.4035 17.5168 19.3118 16.9013 19.3118H15.1346V16.1868H16.9013C17.4399 16.1868 17.9134 16.098 18.3217 15.9205C18.736 15.7429 19.0586 15.4943 19.2894 15.1747C19.5202 14.8492 19.6327 14.4763 19.6268 14.0561C19.6327 13.6477 19.535 13.2897 19.3338 12.9819C19.1385 12.6682 18.8633 12.4255 18.5082 12.2539C18.159 12.0823 17.7536 11.9964 17.2919 11.9964C16.8066 11.9964 16.3656 12.0823 15.9691 12.2539C15.5785 12.4255 15.2678 12.6682 15.0369 12.9819C14.8061 13.2956 14.6848 13.6596 14.6729 14.0739H10.4737C10.4856 12.9908 10.7874 12.0379 11.3793 11.2152C11.9711 10.3866 12.776 9.73852 13.794 9.27095C14.8179 8.80338 15.9839 8.5696 17.2919 8.5696C18.594 8.5696 19.7392 8.79747 20.7276 9.2532C21.716 9.70892 22.4854 10.3304 23.0359 11.1175C23.5863 11.8988 23.8615 12.7836 23.8615 13.772C23.8674 14.7959 23.533 15.6393 22.8583 16.3022C22.1895 16.9651 21.3284 17.3735 20.2749 17.5273V17.6694C21.6835 17.8351 22.7459 18.2908 23.462 19.0366C24.1841 19.7823 24.5421 20.7145 24.5362 21.8331C24.5362 22.8866 24.2255 23.8217 23.604 24.6385C22.9885 25.4493 22.1303 26.0885 21.0295 26.5561C19.9345 27.0178 18.6768 27.2486 17.2564 27.2486Z" fill="white"/>
<path d="M13.5721 26.5384L13.3669 26.9943L13.37 26.9957L13.5721 26.5384ZM11.0508 24.5586L10.6474 24.854L10.6474 24.854L11.0508 24.5586ZM10.1097 21.6555V21.1555H9.6043L9.60976 21.6609L10.1097 21.6555ZM14.5309 21.6555L15.0304 21.6332L15.009 21.1555H14.5309V21.6555ZM14.9126 22.712L14.5163 23.0169L14.5192 23.0206L14.9126 22.712ZM15.8803 23.4222L15.6866 23.8832L15.6866 23.8832L15.8803 23.4222ZM18.6502 23.4045L18.8602 23.8583L18.8631 23.8569L18.6502 23.4045ZM19.5913 22.6321L20.0026 22.9163L20.005 22.9129L19.5913 22.6321ZM19.9197 21.4957L19.4196 21.4888L19.4198 21.5027L19.9197 21.4957ZM19.5558 20.3594L19.1558 20.6594L19.1558 20.6594L19.5558 20.3594ZM18.4993 19.587L18.3104 20.05L18.3126 20.0508L18.4993 19.587ZM15.1346 19.3118H14.6346V19.8118H15.1346V19.3118ZM15.1346 16.1868V15.6868H14.6346V16.1868H15.1346ZM18.3217 15.9205L18.1248 15.4609L18.1224 15.4619L18.3217 15.9205ZM19.2894 15.1747L19.6948 15.4675L19.6973 15.4639L19.2894 15.1747ZM19.6268 14.0561L19.1268 14.0489L19.1267 14.056L19.1268 14.0631L19.6268 14.0561ZM19.3338 12.9819L18.9093 13.2462L18.9153 13.2555L19.3338 12.9819ZM18.5082 12.2539L18.2876 12.7026L18.2906 12.7041L18.5082 12.2539ZM15.9691 12.2539L15.7705 11.795L15.768 11.7961L15.9691 12.2539ZM15.0369 12.9819L15.4397 13.2782L15.4397 13.2782L15.0369 12.9819ZM14.6729 14.0739V14.5739H15.1589L15.1727 14.0881L14.6729 14.0739ZM10.4737 14.0739L9.97375 14.0684L9.96823 14.5739H10.4737V14.0739ZM11.3793 11.2152L11.7851 11.5072L11.7861 11.5058L11.3793 11.2152ZM13.794 9.27095L13.5863 8.81613L13.5853 8.81659L13.794 9.27095ZM20.7276 9.2532L20.5183 9.70725L20.5183 9.70725L20.7276 9.2532ZM23.0359 11.1175L22.6261 11.4041L22.6271 11.4055L23.0359 11.1175ZM23.8615 13.772L23.3615 13.772L23.3615 13.7749L23.8615 13.772ZM22.8583 16.3022L22.5079 15.9455L22.5063 15.9471L22.8583 16.3022ZM20.2749 17.5273L20.2026 17.0326L19.7749 17.0951V17.5273H20.2749ZM20.2749 17.6694H19.7749V18.114L20.2164 18.166L20.2749 17.6694ZM23.462 19.0366L23.1014 19.3829L23.1028 19.3844L23.462 19.0366ZM24.5362 21.8331L24.0362 21.8305V21.8331H24.5362ZM23.604 24.6385L23.2061 24.3357L23.2058 24.3362L23.604 24.6385ZM21.0295 26.5561L21.2237 27.0168L21.2249 27.0163L21.0295 26.5561ZM17.2564 26.7486C15.9285 26.7486 14.7713 26.5217 13.7742 26.081L13.37 26.9957C14.5154 27.502 15.8144 27.7486 17.2564 27.7486V26.7486ZM13.7773 26.0824C12.781 25.6341 12.0126 25.0257 11.4542 24.2632L10.6474 24.854C11.32 25.7724 12.2325 26.4838 13.3669 26.9943L13.7773 26.0824ZM11.4542 24.2632C10.9036 23.5114 10.6205 22.6464 10.6097 21.6501L9.60976 21.6609C9.62266 22.8546 9.96691 23.9249 10.6474 24.854L11.4542 24.2632ZM10.1097 22.1555H14.5309V21.1555H10.1097V22.1555ZM14.0314 21.6779C14.0536 22.1745 14.2155 22.6258 14.5163 23.0169L15.309 22.4071C15.1363 22.1826 15.0437 21.9296 15.0304 21.6332L14.0314 21.6779ZM14.5192 23.0206C14.8161 23.3991 15.212 23.6837 15.6866 23.8832L16.0741 22.9613C15.7319 22.8175 15.4827 22.6286 15.3061 22.4034L14.5192 23.0206ZM15.6866 23.8832C16.1661 24.0847 16.6983 24.1797 17.2741 24.1797V23.1797C16.8083 23.1797 16.4113 23.103 16.0741 22.9613L15.6866 23.8832ZM17.2741 24.1797C17.8538 24.1797 18.3864 24.0775 18.8602 23.8583L18.4403 22.9507C18.1209 23.0984 17.7362 23.1797 17.2741 23.1797V24.1797ZM18.8631 23.8569C19.3353 23.6347 19.7216 23.3231 20.0026 22.9163L19.1799 22.3479C19.0112 22.5921 18.7701 22.7955 18.4373 22.9521L18.8631 23.8569ZM20.005 22.9129C20.2912 22.4911 20.4269 22.0105 20.4197 21.4888L19.4198 21.5027C19.4244 21.8333 19.3411 22.1103 19.1775 22.3514L20.005 22.9129ZM20.4197 21.5027C20.4271 20.9694 20.2727 20.482 19.9558 20.0594L19.1558 20.6594C19.336 20.8997 19.4242 21.1698 19.4198 21.4888L20.4197 21.5027ZM19.9558 20.0594C19.6429 19.6423 19.2106 19.3344 18.686 19.1232L18.3126 20.0508C18.6995 20.2066 18.9714 20.4136 19.1558 20.6594L19.9558 20.0594ZM18.6881 19.124C18.1647 18.9105 17.5649 18.8118 16.9013 18.8118V19.8118C17.4687 19.8118 17.9343 19.8965 18.3104 20.05L18.6881 19.124ZM16.9013 18.8118H15.1346V19.8118H16.9013V18.8118ZM15.6346 19.3118V16.1868H14.6346V19.3118H15.6346ZM15.1346 16.6868H16.9013V15.6868H15.1346V16.6868ZM16.9013 16.6868C17.4944 16.6868 18.0381 16.589 18.5211 16.379L18.1224 15.4619C17.7886 15.607 17.3853 15.6868 16.9013 15.6868V16.6868ZM18.5187 16.38C19.0041 16.172 19.4036 15.8706 19.6948 15.4675L18.8841 14.882C18.7136 15.1181 18.4679 15.3138 18.1248 15.4609L18.5187 16.38ZM19.6973 15.4639C19.9928 15.0471 20.1341 14.5693 20.1267 14.0491L19.1268 14.0631C19.1313 14.3833 19.0477 14.6512 18.8816 14.8855L19.6973 15.4639ZM20.1267 14.0634C20.1339 13.5668 20.014 13.1086 19.7523 12.7083L18.9153 13.2555C19.0561 13.4708 19.1315 13.7287 19.1268 14.0489L20.1267 14.0634ZM19.7583 12.7176C19.5096 12.3182 19.16 12.0136 18.7258 11.8037L18.2906 12.7041C18.5665 12.8375 18.7674 13.0182 18.9094 13.2462L19.7583 12.7176ZM18.7287 11.8052C18.2992 11.5941 17.8159 11.4964 17.2919 11.4964V12.4964C17.6912 12.4964 18.0187 12.5705 18.2876 12.7026L18.7287 11.8052ZM17.2919 11.4964C16.7467 11.4964 16.237 11.5931 15.7705 11.795L16.1677 12.7128C16.4943 12.5714 16.8665 12.4964 17.2919 12.4964V11.4964ZM15.768 11.7961C15.305 11.9995 14.9218 12.2947 14.6342 12.6855L15.4397 13.2782C15.6137 13.0417 15.8519 12.8515 16.1702 12.7117L15.768 11.7961ZM14.6342 12.6855C14.3391 13.0866 14.1877 13.5505 14.1731 14.0596L15.1727 14.0881C15.1819 13.7687 15.2731 13.5046 15.4397 13.2782L14.6342 12.6855ZM14.6729 13.5739H10.4737V14.5739H14.6729V13.5739ZM10.9737 14.0793C10.9845 13.0917 11.2576 12.2405 11.7851 11.5072L10.9734 10.9232C10.3172 11.8353 9.98663 12.8899 9.97375 14.0684L10.9737 14.0793ZM11.7861 11.5058C12.3224 10.7551 13.0558 10.1602 14.0027 9.72532L13.5853 8.81659C12.4963 9.31679 11.6199 10.0181 10.9724 10.9246L11.7861 11.5058ZM14.0017 9.72577C14.9507 9.29242 16.044 9.0696 17.2919 9.0696V8.0696C15.9238 8.0696 14.6852 8.31435 13.5863 8.81613L14.0017 9.72577ZM17.2919 9.0696C18.5357 9.0696 19.6071 9.28715 20.5183 9.70725L20.937 8.79914C19.8713 8.30779 18.6523 8.0696 17.2919 8.0696V9.0696ZM20.5183 9.70725C21.4371 10.1309 22.1329 10.6988 22.6261 11.4041L23.4456 10.831C22.838 9.96197 21.9949 9.28693 20.937 8.79914L20.5183 9.70725ZM22.6271 11.4055C23.116 12.0995 23.3615 12.883 23.3615 13.772H24.3615C24.3615 12.6843 24.0565 11.6981 23.4446 10.8296L22.6271 11.4055ZM23.3615 13.7749C23.3667 14.676 23.0777 15.3857 22.5079 15.9455L23.2087 16.6589C23.9883 15.8929 24.3681 14.9158 24.3615 13.7691L23.3615 13.7749ZM22.5063 15.9471C21.9232 16.5251 21.1648 16.8921 20.2026 17.0326L20.3471 18.0221C21.492 17.8549 22.4558 17.4051 23.2103 16.6573L22.5063 15.9471ZM19.7749 17.5273V17.6694H20.7749V17.5273H19.7749ZM20.2164 18.166C21.5525 18.3231 22.4909 18.7472 23.1014 19.3829L23.8226 18.6903C23.0008 17.8345 21.8144 17.3471 20.3333 17.1728L20.2164 18.166ZM23.1028 19.3844C23.7264 20.0285 24.0415 20.8314 24.0362 21.8305L25.0362 21.8357C25.0428 20.5976 24.6417 19.5362 23.8212 18.6888L23.1028 19.3844ZM24.0362 21.8331C24.0362 22.7804 23.7595 23.6085 23.2061 24.3357L24.002 24.9413C24.6915 24.035 25.0362 22.9928 25.0362 21.8331H24.0362ZM23.2058 24.3362C22.6515 25.0663 21.8688 25.6564 20.834 26.0959L21.2249 27.0163C22.3919 26.5207 23.3255 25.8323 24.0023 24.9408L23.2058 24.3362ZM20.8352 26.0954C19.8125 26.5266 18.6229 26.7486 17.2564 26.7486V27.7486C18.7308 27.7486 20.0565 27.5089 21.2237 27.0168L20.8352 26.0954Z" fill="#7D6629" mask="url(#path-2-outside-1_156_3)"/>
</g>
<defs>
<filter id="filter0_d_156_3" x="8.10986" y="8.56958" width="18.4351" height="22.679" filterUnits="userSpaceOnUse" color-interpolation-filters="sRGB">
<feFlood flood-opacity="0" result="BackgroundImageFix"/>
<feColorMatrix in="SourceAlpha" type="matrix" values="0 0 0 0 0 0 0 0 0 0 0 0 0 0 0 0 0 0 127 0" result="hardAlpha"/>
<feOffset dy="2"/>
<feGaussianBlur stdDeviation="1"/>
<feComposite in2="hardAlpha" operator="out"/>
<feColorMatrix type="matrix" values="0 0 0 0 0 0 0 0 0 0 0 0 0 0 0 0 0 0 0.25 0"/>
<feBlend mode="normal" in2="BackgroundImageFix" result="effect1_dropShadow_156_3"/>
<feBlend mode="normal" in="SourceGraphic" in2="effect1_dropShadow_156_3" result="shape"/>
</filter>
<linearGradient id="paint0_linear_156_3" x1="17.5" y1="0" x2="17.5" y2="35" gradientUnits="userSpaceOnUse">
<stop stop-color="#997C32"/>
<stop offset="1" stop-color="#A58C6E"/>
</linearGradient>
</defs>
</svg>
