<svg width="50" height="50" viewBox="0 0 50 50" fill="none" xmlns="http://www.w3.org/2000/svg">
<circle cx="25" cy="25" r="24.5" fill="url(#paint0_linear_155_8)" stroke="#E0E0E0"/>
<g filter="url(#filter0_d_155_8)">
<mask id="path-2-outside-1_155_8" maskUnits="userSpaceOnUse" x="17" y="12" width="13" height="24" fill="black">
<rect fill="white" x="17" y="12" width="13" height="24"/>
<path d="M28.6974 13.1818V35H23.4347V18.1037H23.3068L18.4276 21.0866V16.527L23.8075 13.1818H28.6974Z"/>
</mask>
<path d="M28.6974 13.1818V35H23.4347V18.1037H23.3068L18.4276 21.0866V16.527L23.8075 13.1818H28.6974Z" fill="url(#paint1_linear_155_8)"/>
<path d="M28.6974 13.1818H29.1974V12.6818H28.6974V13.1818ZM28.6974 35V35.5H29.1974V35H28.6974ZM23.4347 35H22.9347V35.5H23.4347V35ZM23.4347 18.1037H23.9347V17.6037H23.4347V18.1037ZM23.3068 18.1037V17.6037H23.1661L23.046 17.6771L23.3068 18.1037ZM18.4276 21.0866H17.9276V21.9784L18.6884 21.5132L18.4276 21.0866ZM18.4276 16.527L18.1635 16.1024L17.9276 16.2491V16.527H18.4276ZM23.8075 13.1818V12.6818H23.6648L23.5435 12.7572L23.8075 13.1818ZM28.1974 13.1818V35H29.1974V13.1818H28.1974ZM28.6974 34.5H23.4347V35.5H28.6974V34.5ZM23.9347 35V18.1037H22.9347V35H23.9347ZM23.4347 17.6037H23.3068V18.6037H23.4347V17.6037ZM23.046 17.6771L18.1668 20.6601L18.6884 21.5132L23.5676 18.5303L23.046 17.6771ZM18.9276 21.0866V16.527H17.9276V21.0866H18.9276ZM18.6916 16.9516L24.0715 13.6064L23.5435 12.7572L18.1635 16.1024L18.6916 16.9516ZM23.8075 13.6818H28.6974V12.6818H23.8075V13.6818Z" fill="white" mask="url(#path-2-outside-1_155_8)"/>
</g>
<defs>
<filter id="filter0_d_155_8" x="16.4277" y="13.1818" width="14.2695" height="25.8182" filterUnits="userSpaceOnUse" color-interpolation-filters="sRGB">
<feFlood flood-opacity="0" result="BackgroundImageFix"/>
<feColorMatrix in="SourceAlpha" type="matrix" values="0 0 0 0 0 0 0 0 0 0 0 0 0 0 0 0 0 0 127 0" result="hardAlpha"/>
<feOffset dy="2"/>
<feGaussianBlur stdDeviation="1"/>
<feComposite in2="hardAlpha" operator="out"/>
<feColorMatrix type="matrix" values="0 0 0 0 0 0 0 0 0 0 0 0 0 0 0 0 0 0 0.25 0"/>
<feBlend mode="normal" in2="BackgroundImageFix" result="effect1_dropShadow_155_8"/>
<feBlend mode="normal" in="SourceGraphic" in2="effect1_dropShadow_155_8" result="shape"/>
</filter>
<linearGradient id="paint0_linear_155_8" x1="25" y1="0" x2="25" y2="50" gradientUnits="userSpaceOnUse">
<stop stop-color="#CDFFBB"/>
<stop offset="1" stop-color="#00C2FF"/>
</linearGradient>
<linearGradient id="paint1_linear_155_8" x1="23.4912" y1="21.98" x2="23.4911" y2="30.38" gradientUnits="userSpaceOnUse">
<stop stop-color="#CDFFBB"/>
<stop offset="1" stop-color="#00C2FF"/>
</linearGradient>
</defs>
</svg>
