<svg width="50" height="50" viewBox="0 0 50 50" fill="none" xmlns="http://www.w3.org/2000/svg">
<path d="M24.9796 24.7501L19.7644 5.28669C20.8739 4.9894 22.0065 4.78631 23.1499 4.67961L24.9796 24.7501Z" fill="#171717"/>
<path d="M24.9791 24.75L23.1493 4.67952C24.2927 4.57282 25.4429 4.56289 26.5874 4.64984L24.9791 24.75Z" fill="url(#paint0_linear_34_6)"/>
<path d="M24.9788 24.7501L26.5872 4.64991C27.7317 4.73686 28.8664 4.92038 29.979 5.19848L24.9788 24.7501Z" fill="#CA0000"/>
<path d="M24.979 24.75L29.9791 5.19843C31.0917 5.47654 32.1783 5.84822 33.227 6.30947L24.979 24.75Z" fill="#171717"/>
<path d="M24.9785 24.75L33.2266 6.30947C34.2753 6.77072 35.2825 7.31988 36.2372 7.95101L24.9785 24.75Z" fill="#CA0000"/>
<path d="M24.9788 24.75L36.2375 7.95101C37.1922 8.58214 38.091 9.29297 38.9243 10.0758L24.9788 24.75Z" fill="#171717"/>
<path d="M24.9792 24.7501L38.9247 10.0759C39.758 10.8588 40.5226 11.7108 41.2103 12.6229L24.9792 24.7501Z" fill="#CA0000"/>
<path d="M24.9785 24.75L41.2096 12.6228C41.8973 13.5349 42.5057 14.5036 43.0282 15.5187L24.9785 24.75Z" fill="#171717"/>
<path d="M24.9794 24.7499L43.0291 15.5186C43.5516 16.5336 43.9863 17.5912 44.3285 18.68L24.9794 24.7499Z" fill="#CA0000"/>
<path d="M24.9796 24.75L44.3288 18.68C44.671 19.7688 44.9195 20.8848 45.0716 22.0161L24.9796 24.75Z" fill="#171717"/>
<path d="M24.9792 24.75L45.0712 22.0161C45.2232 23.1474 45.2784 24.2897 45.2359 25.4308L24.9792 24.75Z" fill="#CA0000"/>
<path d="M24.9792 24.75L45.2359 25.4308C45.1935 26.5719 45.0536 27.7077 44.8179 28.8259L24.9792 24.75Z" fill="#171717"/>
<path d="M24.9792 24.75L44.8179 28.8259C44.5822 29.9441 44.2514 31.0407 43.8292 32.1037L24.9792 24.75Z" fill="#CA0000"/>
<path d="M24.9792 24.75L43.8292 32.1037C43.407 33.1668 42.8948 34.1926 42.2982 35.17L24.9792 24.75Z" fill="#171717"/>
<path d="M24.9792 24.75L42.2982 35.17C41.7016 36.1474 41.0228 37.073 40.269 37.9366L24.9792 24.75Z" fill="#CA0000"/>
<path d="M24.9792 24.75L40.269 37.9366C39.5152 38.8002 38.6892 39.5988 37.7999 40.3237L24.9792 24.75Z" fill="#171717"/>
<path d="M24.9792 24.75L37.7999 40.3237C36.9106 41.0487 35.9612 41.6974 34.962 42.2629L24.9792 24.75Z" fill="#CA0000"/>
<path d="M24.9792 24.75L34.962 42.2629C33.9628 42.8283 32.9173 43.3085 31.8369 43.6982L24.9792 24.75Z" fill="#171717"/>
<path d="M24.9791 24.75L31.8368 43.6982C30.7563 44.0879 29.6448 44.3857 28.5143 44.5884L24.9791 24.75Z" fill="#CA0000"/>
<path d="M24.9786 24.75L28.5138 44.5884C27.3832 44.7911 26.2378 44.898 25.0896 44.9079L24.9786 24.75Z" fill="#171717"/>
<path d="M24.9788 24.75L25.0899 44.9079C23.9418 44.9178 22.7953 44.8307 21.6626 44.6475L24.9788 24.75Z" fill="#CA0000"/>
<path d="M24.9789 24.7499L21.6627 44.6475C20.5301 44.4643 19.4155 44.1857 18.3309 43.8146L24.9789 24.7499Z" fill="#171717"/>
<path d="M24.9791 24.7501L18.3311 43.8148C17.2465 43.4438 16.1958 42.9817 15.1904 42.4335L24.9791 24.7501Z" fill="#CA0000"/>
<path d="M24.9793 24.75L15.1906 42.4334C14.1853 41.8853 13.2288 41.253 12.3316 40.5434L24.9793 24.75Z" fill="#171717"/>
<path d="M24.979 24.75L12.3314 40.5435C11.4342 39.8339 10.5994 39.0496 9.83619 38.1991L24.979 24.75Z" fill="#CA0000"/>
<path d="M24.9788 24.7499L9.83594 38.1991C9.0727 37.3486 8.38371 36.4349 7.7764 35.4678L24.9788 24.7499Z" fill="#171717"/>
<path d="M24.9788 24.7499L7.7764 35.4678C7.16909 34.5008 6.64565 33.4839 6.21174 32.4282L24.9788 24.7499Z" fill="#CA0000"/>
<path d="M24.9792 24.7499L6.2121 32.4282C5.77818 31.3725 5.43536 30.2818 5.18733 29.1678L24.9792 24.7499Z" fill="#171717"/>
<path d="M24.979 24.75L5.18721 29.1679C4.93918 28.0539 4.78683 26.9206 4.73182 25.7803L24.979 24.75Z" fill="#CA0000"/>
<path d="M24.979 24.75L4.73177 25.7803C4.67676 24.64 4.71927 23.4968 4.85886 22.3631L24.979 24.75Z" fill="#171717"/>
<path d="M24.9786 24.7499L4.85845 22.363C4.99803 21.2293 5.23418 20.1091 5.56435 19.0145L24.9786 24.7499Z" fill="#CA0000"/>
<path d="M24.9789 24.7499L5.5647 19.0145C5.89487 17.9199 6.31786 16.8549 6.82911 15.8309L24.9789 24.7499Z" fill="#171717"/>
<path d="M24.9789 24.75L6.8291 15.831C7.34036 14.807 7.93802 13.8279 8.61566 12.904L24.9789 24.75Z" fill="#CA0000"/>
<path d="M24.9792 24.75L8.61594 12.904C9.29357 11.9802 10.0487 11.115 10.8732 10.3179L24.9792 24.75Z" fill="#171717"/>
<path d="M24.979 24.75L10.8729 10.3179C11.6974 9.52073 12.5883 8.79446 13.536 8.1469L24.979 24.75Z" fill="#CA0000"/>
<path d="M24.9788 24.7499L13.5359 8.14688C14.4836 7.49933 15.4846 6.93285 16.5282 6.45354L24.9788 24.7499Z" fill="#171717"/>
<path d="M24.9791 24.7499L16.5284 6.45349C17.572 5.97418 18.6544 5.58377 19.7639 5.28649L24.9791 24.7499Z" fill="#CA0000"/>
<circle cx="25.0005" cy="25.0001" r="16.5" fill="url(#paint1_radial_34_6)"/>
<circle cx="25.05" cy="24.95" r="6.25" fill="url(#paint2_radial_34_6)"/>
<defs>
<linearGradient id="paint0_linear_34_6" x1="24.8994" y1="4.49645" x2="25" y2="8.74998" gradientUnits="userSpaceOnUse">
<stop stop-color="#CDFFBB"/>
<stop offset="1" stop-color="#00C2FF"/>
</linearGradient>
<radialGradient id="paint1_radial_34_6" cx="0" cy="0" r="1" gradientUnits="userSpaceOnUse" gradientTransform="translate(25.0005 25.0001) rotate(180) scale(16.5)">
<stop stop-color="#443625"/>
<stop offset="0.973881" stop-color="#248900"/>
<stop offset="1" stop-color="#375816"/>
</radialGradient>
<radialGradient id="paint2_radial_34_6" cx="0" cy="0" r="1" gradientUnits="userSpaceOnUse" gradientTransform="translate(25.05 24.95) rotate(89.7954) scale(14.0001)">
<stop stop-color="white"/>
<stop offset="1" stop-color="#999999"/>
</radialGradient>
</defs>
</svg>
